<?xml version="1.0" encoding="UTF-8"?><svg xmlns="http://www.w3.org/2000/svg" xmlns:xlink="http://www.w3.org/1999/xlink" width="375" zoomAndPan="magnify" viewBox="0 0 375 374.999991" height="374.999991" preserveAspectRatio="xMidYMid meet" version="1.0"><defs><clipPath id="clip-0"><path d="M 117.25 7 L 213 7 L 213 357 L 117.25 357 Z M 117.25 7 " clip-rule="nonzero"/></clipPath></defs><g clip-path="url(#clip-0)"><path fill="rgb(40.779114%, 16.468811%, 91.369629%)" d="M 120.152344 11.910156 C 120.398438 11.726562 120.671875 11.699219 120.960938 11.816406 C 121.773438 11.113281 121.144531 9.488281 122.632812 9.214844 C 125 6.835938 127.417969 7.738281 129.8125 9.148438 C 136.503906 13.125 142.414062 18.109375 148.023438 23.457031 C 168.089844 42.632812 183.230469 65.113281 194.539062 90.511719 C 214.292969 134.847656 217.023438 180.609375 207.375 227.523438 C 202.90625 249.273438 194.722656 269.832031 185.582031 290.011719 C 180.210938 301.875 174.144531 313.371094 168.351562 325.023438 C 167.960938 325.351562 167.566406 325.664062 167.175781 325.992188 C 167.148438 326.566406 166.953125 327.207031 167.164062 327.679688 C 167.164062 327.679688 167.164062 327.679688 167.175781 327.691406 C 167.34375 328.058594 167.867188 327.808594 168.078125 327.390625 C 172.652344 325.128906 176.601562 321.976562 180.378906 318.613281 C 182.96875 316.3125 185.648438 314.273438 188.917969 313.070312 C 194.445312 308.074219 200.367188 307.902344 205.519531 312.351562 C 200.171875 326.226562 189.179688 334.6875 177.292969 342.378906 C 172.875 345.242188 168.664062 348.394531 164.402344 351.480469 C 154.207031 358.882812 155.265625 357.234375 145.867188 353.140625 C 143.761719 352.226562 141.90625 350.839844 140.207031 349.269531 C 139.578125 348.695312 139.054688 348.105469 139.054688 347.203125 C 136.714844 346.027344 136.6875 343.828125 136.765625 341.683594 C 137.003906 335.316406 137.316406 328.960938 137.601562 322.589844 C 136.871094 321.257812 137.09375 319.871094 137.382812 318.484375 C 136.597656 317.175781 136.84375 315.777344 137.027344 314.390625 C 136.324219 313.554688 136.582031 312.507812 136.453125 311.550781 C 134.636719 298.617188 131.394531 286.074219 126.019531 274.121094 C 125.613281 273.21875 125.289062 272.289062 124.921875 271.375 C 124.476562 270.289062 123.96875 269.058594 124.988281 268.195312 C 125.757812 267.542969 127.15625 267.726562 127.796875 268.300781 C 130.648438 270.839844 134.582031 271.21875 137.550781 273.429688 C 138.871094 274.410156 139.683594 275.847656 140.480469 277.324219 C 146.691406 288.691406 150.714844 300.839844 153.515625 313.433594 C 153.761719 314.558594 153.839844 315.75 154.3125 316.785156 C 154.859375 317.988281 155.878906 317.644531 156.78125 317.042969 C 156.625 315.738281 157.148438 314.808594 158.285156 314.207031 C 158.378906 312.992188 158.558594 311.8125 159.828125 311.199219 C 159.683594 310.898438 159.777344 310.703125 160.089844 310.609375 C 160.140625 309.445312 160.378906 308.375 161.515625 307.746094 C 161.722656 306.960938 161.828125 306.136719 162.167969 305.40625 C 165.855469 297.363281 169.671875 289.382812 173.269531 281.300781 C 176.535156 273.964844 179.570312 266.535156 182.695312 259.144531 C 183.28125 257.09375 183.792969 255.027344 184.457031 253.011719 C 190.824219 233.367188 194.734375 213.253906 195.625 192.601562 C 195.9375 185.226562 196.027344 177.851562 196.210938 170.472656 C 195.425781 169.074219 195.742188 167.636719 196.027344 166.183594 C 195.242188 164.863281 195.519531 163.488281 195.78125 162.101562 C 194.945312 160.898438 195.296875 159.59375 195.425781 158.296875 C 194.800781 157.550781 194.839844 156.726562 195.140625 155.878906 C 194.929688 155.589844 194.917969 155.300781 195.113281 155 C 194.433594 154.164062 194.667969 153.132812 194.511719 152.191406 C 193.714844 147.535156 193.753906 142.761719 192.382812 138.195312 C 192.761719 137.789062 192.957031 136.445312 193.648438 138.089844 C 194.121094 139.191406 194.445312 139.253906 194.722656 138.953125 C 194.957031 138.691406 195.152344 138.15625 195.347656 137.765625 C 192.367188 123.140625 187.660156 109.058594 182.027344 95.273438 C 181.386719 94.042969 180.746094 92.800781 180.105469 91.570312 C 176.273438 84.222656 172.445312 76.859375 168.625 69.507812 C 168.3125 69.363281 168.105469 69.15625 167.984375 68.894531 C 167.90625 68.710938 167.867188 68.511719 167.867188 68.292969 C 167.359375 68.054688 167.125 67.648438 167.136719 67.101562 C 166.613281 66.878906 166.378906 66.472656 166.402344 65.910156 C 165.867188 65.703125 165.632812 65.296875 165.660156 64.722656 C 165.121094 64.511719 164.863281 64.117188 164.902344 63.542969 C 164.351562 63.347656 164.101562 62.957031 164.140625 62.378906 L 164.128906 62.367188 C 163.59375 62.183594 163.332031 61.792969 163.371094 61.230469 L 163.359375 61.203125 C 163.082031 60.847656 162.820312 60.46875 162.585938 60.078125 L 162.5625 60.039062 C 162.023438 59.855469 161.761719 59.488281 161.789062 58.914062 L 161.761719 58.875 C 161.226562 58.691406 160.964844 58.324219 160.992188 57.75 L 160.964844 57.710938 C 160.964844 57.710938 160.953125 57.699219 160.953125 57.699219 C 160.953125 57.699219 160.964844 57.710938 160.964844 57.710938 C 160.417969 57.539062 160.15625 57.160156 160.179688 56.585938 L 160.167969 56.558594 C 159.617188 56.390625 159.359375 56.011719 159.382812 55.433594 L 159.371094 55.421875 C 158.820312 55.238281 158.546875 54.859375 158.558594 54.285156 C 155.855469 50.9375 153.148438 47.601562 150.441406 44.253906 C 149.578125 42.070312 147.8125 40.566406 146.308594 38.878906 C 146.050781 38.941406 145.839844 39.0625 145.65625 39.203125 C 145.367188 39.425781 145.171875 39.714844 145.054688 40.105469 C 143.789062 38.957031 142.425781 37.898438 141.761719 36.234375 C 141.605469 35.710938 141.382812 35.230469 140.964844 34.847656 C 141.226562 35.308594 141.5 35.765625 141.761719 36.234375 C 141.277344 35.949219 140.859375 35.621094 140.949219 35.007812 C 140.101562 34.847656 139.589844 34.3125 139.277344 33.527344 C 138.726562 33.4375 138.386719 33.148438 138.363281 32.5625 C 137.839844 32.324219 137.433594 32.011719 137.367188 31.398438 C 137.09375 31.316406 136.882812 31.175781 136.765625 30.886719 C 135.328125 29.984375 134.152344 28.832031 133.25 27.394531 C 132.269531 26.703125 131.261719 26.035156 130.726562 24.898438 C 129.941406 24.6875 129.523438 24.046875 129.066406 23.457031 C 125.195312 20.738281 121.851562 17.324219 117.261719 15.246094 C 118.621094 14.105469 118.386719 12.199219 120.152344 11.910156 Z M 161.058594 310.78125 C 161.058594 310.765625 161.058594 310.765625 161.058594 310.753906 C 161.070312 310.753906 161.070312 310.765625 161.070312 310.765625 C 161.070312 310.753906 161.058594 310.742188 161.058594 310.742188 C 161.058594 310.742188 161.058594 310.753906 161.058594 310.753906 C 161.042969 310.753906 161.03125 310.753906 161.019531 310.742188 C 161.03125 310.765625 161.042969 310.765625 161.058594 310.78125 Z M 162.5625 55.226562 C 162.640625 55.304688 162.71875 55.382812 162.796875 55.460938 C 162.78125 55.433594 162.769531 55.410156 162.757812 55.382812 C 162.703125 55.304688 162.652344 55.226562 162.585938 55.148438 C 162.585938 55.160156 162.574219 55.1875 162.5625 55.226562 Z M 168.625 69.429688 C 168.640625 69.429688 168.640625 69.414062 168.652344 69.414062 C 168.679688 69.390625 168.71875 69.375 168.746094 69.351562 L 168.835938 69.257812 L 168.640625 69.414062 C 168.625 69.414062 168.625 69.402344 168.613281 69.402344 C 168.625 69.402344 168.625 69.414062 168.625 69.429688 Z M 162.742188 54.742188 C 162.691406 54.871094 162.640625 55.003906 162.601562 55.121094 C 162.652344 55.199219 162.703125 55.277344 162.757812 55.355469 C 162.664062 55.171875 162.652344 54.964844 162.742188 54.742188 Z M 163.136719 55.867188 C 163.203125 55.957031 163.265625 56.050781 163.332031 56.128906 C 163.34375 56.128906 163.34375 56.140625 163.359375 56.140625 C 163.28125 56.050781 163.203125 55.957031 163.136719 55.867188 Z M 128.738281 14.40625 C 128.738281 14.394531 128.726562 14.382812 128.726562 14.367188 C 128.726562 14.367188 128.714844 14.355469 128.714844 14.355469 C 128.699219 14.355469 128.6875 14.34375 128.675781 14.34375 C 128.6875 14.367188 128.714844 14.382812 128.738281 14.40625 Z M 130.453125 15.625 C 130.476562 15.625 130.503906 15.625 130.519531 15.648438 C 130.492188 15.648438 130.464844 15.625 130.453125 15.625 Z M 140.871094 34 C 140.910156 33.90625 140.964844 33.816406 141.042969 33.726562 C 140.976562 33.710938 140.910156 33.699219 140.84375 33.683594 C 140.859375 33.789062 140.859375 33.894531 140.871094 34 Z M 137.984375 31.660156 C 137.878906 31.515625 137.722656 31.410156 137.523438 31.34375 C 137.523438 31.34375 137.523438 31.34375 137.523438 31.359375 C 137.707031 31.4375 137.863281 31.527344 137.984375 31.660156 Z M 137.984375 31.660156 " fill-opacity="1" fill-rule="nonzero"/></g><path fill="rgb(40.779114%, 16.468811%, 91.369629%)" d="M 162.5625 60 C 162.820312 60.378906 163.070312 60.757812 163.332031 61.125 C 162.78125 60.941406 162.535156 60.5625 162.5625 60 Z M 162.5625 60 " fill-opacity="1" fill-rule="nonzero"/></svg>