<?xml version="1.0" encoding="UTF-8"?><svg xmlns="http://www.w3.org/2000/svg" xmlns:xlink="http://www.w3.org/1999/xlink" width="375" zoomAndPan="magnify" viewBox="0 0 375 374.999991" height="374.999991" preserveAspectRatio="xMidYMid meet" version="1.0"><defs><clipPath id="clip-0"><path d="M 82 17 L 291 17 L 291 317 L 82 317 Z M 82 17 " clip-rule="nonzero"/></clipPath><clipPath id="clip-1"><path d="M 98.96875 12.519531 L 314.425781 292.453125 L 235.378906 353.292969 L 19.921875 73.359375 Z M 98.96875 12.519531 " clip-rule="nonzero"/></clipPath><clipPath id="clip-2"><path d="M 98.96875 12.519531 L 314.425781 292.453125 L 235.378906 353.292969 L 19.921875 73.359375 Z M 98.96875 12.519531 " clip-rule="nonzero"/></clipPath><clipPath id="clip-3"><path d="M 95 82 L 97 82 L 97 85 L 95 85 Z M 95 82 " clip-rule="nonzero"/></clipPath><clipPath id="clip-4"><path d="M 98.96875 12.519531 L 314.425781 292.453125 L 235.378906 353.292969 L 19.921875 73.359375 Z M 98.96875 12.519531 " clip-rule="nonzero"/></clipPath><clipPath id="clip-5"><path d="M 98.96875 12.519531 L 314.425781 292.453125 L 235.378906 353.292969 L 19.921875 73.359375 Z M 98.96875 12.519531 " clip-rule="nonzero"/></clipPath></defs><g clip-path="url(#clip-0)"><g clip-path="url(#clip-1)"><g clip-path="url(#clip-2)"><path fill="rgb(40.779114%, 16.468811%, 91.369629%)" d="M 100.089844 18.734375 C 99.78125 18.742188 99.546875 18.890625 99.390625 19.15625 C 98.320312 19.09375 97.828125 17.425781 96.480469 18.117188 C 93.152344 17.671875 91.785156 19.863281 90.75 22.441406 C 87.871094 29.675781 86.226562 37.226562 85.046875 44.886719 C 80.839844 72.320312 82.554688 99.371094 89.082031 126.394531 C 100.472656 173.578125 126.21875 211.507812 162.476562 242.800781 C 179.285156 257.308594 198.3125 268.609375 217.863281 279.027344 C 229.355469 285.152344 241.171875 290.5625 252.871094 296.261719 C 253.378906 296.28125 253.882812 296.292969 254.394531 296.3125 C 254.765625 296.753906 255.3125 297.140625 255.433594 297.640625 C 255.433594 297.640625 255.433594 297.640625 255.429688 297.660156 C 255.519531 298.054688 254.953125 298.175781 254.53125 297.972656 C 249.527344 298.96875 244.472656 298.878906 239.429688 298.519531 C 235.976562 298.277344 232.605469 298.292969 229.28125 299.332031 C 221.851562 298.746094 217.058594 302.222656 215.6875 308.890625 C 228.386719 316.625 242.261719 316.625 256.371094 315.46875 C 261.617188 315.046875 266.875 314.976562 272.136719 314.820312 C 284.730469 314.46875 282.886719 313.808594 287.839844 304.832031 C 288.949219 302.820312 289.574219 300.589844 289.964844 298.308594 C 290.109375 297.472656 290.167969 296.6875 289.617188 295.972656 C 290.753906 293.609375 289.433594 291.855469 288.0625 290.203125 C 283.992188 285.296875 279.867188 280.453125 275.753906 275.582031 C 275.519531 274.078125 274.5 273.113281 273.425781 272.191406 C 273.25 270.675781 272.199219 269.71875 271.207031 268.730469 C 271.257812 267.636719 270.410156 266.96875 269.933594 266.132812 C 263.484375 254.773438 258.402344 242.855469 255.371094 230.105469 C 255.140625 229.144531 254.832031 228.210938 254.566406 227.261719 C 254.253906 226.128906 253.910156 224.84375 252.574219 224.78125 C 251.566406 224.734375 250.566406 225.730469 250.410156 226.578125 C 249.699219 230.328125 246.8125 233.027344 245.808594 236.589844 C 245.359375 238.171875 245.597656 239.808594 245.867188 241.464844 C 247.875 254.257812 252.097656 266.34375 257.5625 278.03125 C 258.050781 279.074219 258.714844 280.0625 258.972656 281.167969 C 259.269531 282.457031 258.253906 282.8125 257.171875 282.882812 C 256.5 281.753906 255.519531 281.335938 254.25 281.550781 C 253.4375 280.644531 252.574219 279.824219 251.195312 280.109375 C 251.125 279.785156 250.933594 279.683594 250.628906 279.800781 C 249.875 278.910156 249.035156 278.207031 247.75 278.402344 C 247.105469 277.90625 246.519531 277.320312 245.804688 276.945312 C 237.976562 272.820312 230.085938 268.828125 222.308594 264.613281 C 215.242188 260.792969 208.308594 256.757812 201.324219 252.804688 C 199.605469 251.539062 197.941406 250.210938 196.183594 249.023438 C 179.160156 237.339844 163.792969 223.78125 150.492188 207.960938 C 145.746094 202.304688 141.171875 196.515625 136.527344 190.78125 C 136.296875 189.195312 135.171875 188.246094 134.058594 187.269531 C 133.875 185.746094 132.816406 184.824219 131.765625 183.886719 C 131.695312 182.421875 130.617188 181.601562 129.722656 180.65625 C 129.765625 179.679688 129.234375 179.050781 128.476562 178.5625 C 128.464844 178.207031 128.300781 177.96875 127.960938 177.851562 C 127.992188 176.773438 127.171875 176.097656 126.722656 175.257812 C 124.515625 171.082031 121.574219 167.320312 119.878906 162.867188 C 119.328125 162.777344 118.351562 161.828125 118.808594 163.558594 C 119.105469 164.714844 118.886719 164.964844 118.484375 164.894531 C 118.140625 164.832031 117.65625 164.527344 117.261719 164.335938 C 110.707031 150.929688 105.84375 136.898438 101.902344 122.535156 C 101.660156 121.171875 101.410156 119.796875 101.167969 118.433594 C 99.71875 110.269531 98.265625 102.097656 96.804688 93.945312 C 96.96875 93.640625 97.003906 93.347656 96.9375 93.070312 C 96.890625 92.875 96.800781 92.695312 96.664062 92.519531 C 96.925781 92.023438 96.863281 91.558594 96.519531 91.128906 C 96.796875 90.636719 96.738281 90.171875 96.375 89.742188 C 96.671875 89.246094 96.609375 88.78125 96.238281 88.34375 C 96.535156 87.851562 96.503906 87.378906 96.121094 86.949219 C 96.4375 86.457031 96.394531 85.996094 96.011719 85.5625 L 96.015625 85.542969 C 96.328125 85.074219 96.296875 84.601562 95.921875 84.179688 L 95.914062 84.152344 C 95.917969 83.703125 95.894531 83.246094 95.839844 82.789062 L 95.835938 82.742188 C 96.152344 82.269531 96.136719 81.820312 95.761719 81.382812 L 95.761719 81.335938 C 96.074219 80.863281 96.058594 80.414062 95.683594 79.972656 L 95.683594 79.925781 C 95.683594 79.925781 95.683594 79.90625 95.683594 79.90625 C 95.683594 79.90625 95.683594 79.925781 95.683594 79.925781 C 96.011719 79.457031 95.988281 78.996094 95.617188 78.554688 L 95.613281 78.527344 C 95.941406 78.058594 95.917969 77.597656 95.546875 77.15625 L 95.550781 77.140625 C 95.875 76.660156 95.859375 76.191406 95.5 75.742188 C 95.601562 71.4375 95.710938 67.144531 95.8125 62.839844 C 95.164062 60.585938 95.644531 58.316406 95.808594 56.0625 C 96.054688 55.953125 96.292969 55.921875 96.527344 55.921875 C 96.890625 55.921875 97.21875 56.03125 97.554688 56.269531 C 97.855469 54.585938 98.289062 52.917969 97.800781 51.195312 C 97.609375 50.683594 97.488281 50.164062 97.589844 49.609375 C 97.660156 50.132812 97.722656 50.660156 97.800781 51.195312 C 98.011719 50.671875 98.140625 50.15625 97.695312 49.726562 C 98.273438 49.082031 98.351562 48.347656 98.121094 47.535156 C 98.5 47.125 98.59375 46.691406 98.253906 46.207031 C 98.527344 45.703125 98.65625 45.207031 98.332031 44.679688 C 98.5 44.449219 98.578125 44.207031 98.496094 43.910156 C 99.085938 42.316406 99.316406 40.6875 99.15625 38.996094 C 99.507812 37.847656 99.898438 36.707031 99.628906 35.476562 C 100.125 34.832031 100.066406 34.070312 100.070312 33.324219 C 101.476562 28.808594 102.046875 24.0625 104.414062 19.617188 C 102.644531 19.542969 101.664062 17.886719 100.089844 18.734375 Z M 249.964844 280.527344 C 249.957031 280.515625 249.957031 280.515625 249.949219 280.507812 C 249.9375 280.515625 249.945312 280.523438 249.945312 280.523438 C 249.9375 280.515625 249.941406 280.496094 249.941406 280.496094 C 249.941406 280.496094 249.949219 280.507812 249.949219 280.507812 C 249.957031 280.5 249.96875 280.492188 249.972656 280.472656 C 249.976562 280.5 249.964844 280.507812 249.964844 280.527344 Z M 92.902344 78.929688 C 92.886719 79.039062 92.875 79.148438 92.859375 79.257812 C 92.855469 79.230469 92.847656 79.203125 92.84375 79.171875 C 92.835938 79.078125 92.828125 78.984375 92.832031 78.882812 C 92.839844 78.894531 92.867188 78.90625 92.902344 78.929688 Z M 96.757812 93.882812 C 96.746094 93.890625 96.738281 93.882812 96.730469 93.890625 C 96.691406 93.886719 96.652344 93.898438 96.617188 93.894531 L 96.488281 93.878906 L 96.738281 93.882812 C 96.75 93.875 96.742188 93.863281 96.753906 93.855469 C 96.742188 93.863281 96.75 93.875 96.757812 93.882812 Z M 92.460938 78.65625 C 92.582031 78.730469 92.703125 78.800781 92.808594 78.871094 C 92.8125 78.964844 92.820312 79.058594 92.828125 79.152344 C 92.789062 78.953125 92.671875 78.777344 92.460938 78.65625 Z M 92.835938 79.789062 C 92.839844 79.898438 92.84375 80.011719 92.839844 80.113281 C 92.832031 80.121094 92.839844 80.132812 92.828125 80.140625 C 92.835938 80.019531 92.839844 79.898438 92.835938 79.789062 Z M 94.808594 25.953125 C 94.800781 25.945312 94.800781 25.925781 94.792969 25.914062 C 94.792969 25.914062 94.796875 25.898438 94.796875 25.898438 C 94.808594 25.886719 94.808594 25.871094 94.820312 25.863281 C 94.824219 25.890625 94.8125 25.917969 94.808594 25.953125 Z M 94.191406 27.960938 C 94.171875 27.976562 94.152344 27.996094 94.15625 28.023438 C 94.175781 28.007812 94.183594 27.96875 94.191406 27.960938 Z M 97.144531 48.878906 C 97.054688 48.832031 96.957031 48.789062 96.839844 48.765625 C 96.882812 48.714844 96.929688 48.664062 96.972656 48.613281 C 97.027344 48.707031 97.089844 48.789062 97.144531 48.878906 Z M 98.003906 45.261719 C 98 45.085938 98.058594 44.90625 98.175781 44.734375 C 98.175781 44.734375 98.175781 44.734375 98.183594 44.746094 C 98.085938 44.917969 98.019531 45.085938 98.003906 45.261719 Z M 98.003906 45.261719 " fill-opacity="1" fill-rule="nonzero"/></g></g></g><g clip-path="url(#clip-3)"><g clip-path="url(#clip-4)"><g clip-path="url(#clip-5)"><path fill="rgb(40.779114%, 16.468811%, 91.369629%)" d="M 95.8125 82.710938 C 95.839844 83.171875 95.871094 83.625 95.890625 84.074219 C 96.210938 83.59375 96.175781 83.140625 95.8125 82.710938 Z M 95.8125 82.710938 " fill-opacity="1" fill-rule="nonzero"/></g></g></g></svg>