<?xml version="1.0" encoding="UTF-8"?><svg xmlns="http://www.w3.org/2000/svg" xmlns:xlink="http://www.w3.org/1999/xlink" width="810" zoomAndPan="magnify" viewBox="0 0 810 809.999993" height="809.999993" preserveAspectRatio="xMidYMid meet" version="1.0"><defs><clipPath id="clip-0"><path d="M 117.113281 84 L 708.863281 84 L 708.863281 678 L 117.113281 678 Z M 117.113281 84 " clip-rule="nonzero"/></clipPath></defs><g clip-path="url(#clip-0)"><path fill="rgb(36.079407%, 88.238525%, 90.19928%)" d="M 413.46875 84.359375 C 249.964844 84.359375 117.113281 217.363281 117.113281 380.835938 C 117.113281 544.339844 249.964844 677.164062 413.46875 677.164062 C 572.972656 677.164062 702.921875 550.695312 709.183594 392.695312 L 678.507812 393.152344 C 672.0625 534.296875 556.242188 646.574219 413.46875 646.574219 C 266.546875 646.574219 147.792969 527.789062 147.792969 380.898438 C 147.792969 233.972656 266.546875 115.21875 413.46875 115.21875 C 424.933594 115.21875 436.097656 116.097656 447.171875 117.550781 L 454.191406 87.535156 C 440.847656 85.691406 427.324219 84.390625 413.46875 84.390625 Z M 412.410156 226.046875 C 407.175781 226.046875 401.910156 226.351562 396.613281 226.925781 C 313.804688 235.730469 253.355469 308.585938 258.832031 390.910156 L 274.714844 389.007812 C 270.269531 315.394531 324.183594 250.707031 398.308594 242.808594 C 474.554688 234.699219 542.78125 289.796875 550.886719 366.042969 C 558.996094 442.316406 503.929688 510.515625 427.65625 518.621094 C 421.726562 519.289062 415.859375 519.410156 410.046875 519.289062 L 408.050781 535.261719 C 415.101562 535.476562 422.179688 535.382812 429.382812 534.71875 L 429.382812 534.65625 C 514.25 525.613281 575.847656 449.214844 566.800781 364.347656 C 558.332031 284.773438 490.769531 225.652344 412.410156 226.046875 Z M 412.410156 226.046875 " fill-opacity="1" fill-rule="nonzero"/></g></svg>