<?xml version="1.0" encoding="UTF-8"?><svg xmlns="http://www.w3.org/2000/svg" xmlns:xlink="http://www.w3.org/1999/xlink" width="810" zoomAndPan="magnify" viewBox="0 0 810 809.999993" height="809.999993" preserveAspectRatio="xMidYMid meet" version="1.0"><defs><clipPath id="clip-0"><path d="M 375.539062 405 L 434.789062 405 L 434.789062 450.75 L 375.539062 450.75 Z M 375.539062 405 " clip-rule="nonzero"/></clipPath></defs><path fill="rgb(95.289612%, 70.979309%, 20.779419%)" d="M 402.433594 416.140625 C 401.875 418.324219 400.089844 419.582031 397.257812 419.757812 C 396.601562 419.800781 395.933594 419.765625 395.273438 419.761719 C 393.613281 419.820312 391.972656 419.609375 390.339844 419.324219 C 388.304688 418.96875 387.222656 417.695312 386.832031 415.765625 C 386.050781 411.917969 388.925781 407.644531 393.289062 407.917969 C 395.039062 408.027344 396.675781 408.429688 398.316406 408.890625 C 400.542969 409.515625 403.003906 413.921875 402.433594 416.140625 Z M 415.980469 411.738281 C 415.839844 409.484375 414.121094 407.324219 412.234375 407.042969 C 410.644531 406.804688 408.433594 407.792969 407.632812 409.160156 C 407.023438 410.195312 406.667969 411.320312 406.453125 412.511719 C 405.882812 415.65625 408.027344 417.082031 410.292969 416.761719 C 410.875 416.699219 411.460938 416.660156 412.039062 416.570312 C 415.027344 416.113281 416.160156 414.714844 415.980469 411.738281 Z M 415.980469 411.738281 " fill-opacity="1" fill-rule="nonzero"/><path fill="rgb(75.689697%, 16.079712%, 14.898682%)" d="M 395.109375 433.089844 C 394.023438 433.011719 392.914062 433.207031 391.820312 433.324219 C 390.972656 433.414062 390.667969 433.082031 390.8125 432.261719 C 391.382812 429.046875 391.5 425.777344 391.886719 422.542969 C 392.121094 420.605469 392.21875 420.480469 394.195312 420.84375 C 394.410156 420.882812 394.640625 420.921875 394.851562 420.882812 C 395.605469 420.746094 395.707031 421.136719 395.667969 421.75 C 395.628906 422.363281 395.660156 422.988281 395.660156 423.605469 C 395.648438 423.605469 395.636719 423.605469 395.625 423.605469 C 395.785156 426.417969 395.933594 429.230469 396.105469 432.039062 C 396.152344 432.773438 396.070312 433.160156 395.109375 433.089844 Z M 395.109375 433.089844 " fill-opacity="1" fill-rule="nonzero"/><g clip-path="url(#clip-0)"><path fill="rgb(65.098572%, 65.098572%, 65.098572%)" d="M 433.371094 410.933594 C 433.007812 410.644531 432.613281 410.453125 432.183594 410.828125 C 431.746094 411.207031 432.019531 411.480469 432.277344 411.835938 C 433.234375 413.160156 432.980469 414.300781 431.558594 415.117188 C 430.351562 415.8125 429.0625 415.96875 427.730469 415.535156 C 424.671875 414.535156 422.203125 412.71875 420.214844 410.21875 C 419.28125 409.046875 418.347656 407.867188 417.308594 406.789062 C 416.078125 405.519531 414.59375 404.996094 412.796875 405.632812 C 412.191406 405.847656 411.503906 405.875 410.851562 405.910156 C 409.335938 406 408.097656 406.617188 407.097656 407.734375 C 405.515625 409.507812 404.992188 411.621094 405.160156 413.921875 C 405.332031 416.257812 406.730469 417.636719 409.082031 417.878906 C 409.339844 417.90625 409.601562 417.90625 409.847656 417.964844 C 410.132812 418.03125 410.554688 417.785156 410.667969 418.277344 C 410.773438 418.742188 410.542969 419.027344 410.15625 419.253906 C 409.511719 419.625 409.019531 420.175781 408.53125 420.722656 C 407.234375 422.167969 406.027344 423.679688 404.890625 425.253906 C 404.632812 425.613281 404.414062 426.050781 403.886719 426.179688 C 403.554688 424.339844 403.785156 422.5625 403.996094 420.800781 C 404.269531 418.550781 404.46875 416.308594 404.265625 414.042969 C 404.0625 411.816406 403.125 410.011719 401.203125 408.75 C 400.46875 408.265625 399.570312 408.351562 398.820312 408.019531 C 395.945312 406.746094 393.066406 407.367188 390.195312 407.925781 C 389.222656 408.117188 388.367188 408.761719 387.257812 408.503906 C 386.757812 408.386719 386.183594 408.660156 385.691406 408.933594 C 383.394531 410.21875 382.101562 412.230469 381.523438 414.703125 C 380.902344 417.355469 381.269531 420.082031 381 422.757812 C 380.640625 426.351562 379.722656 429.675781 375.996094 431.371094 C 375.695312 431.507812 375.535156 431.738281 375.574219 432.066406 C 375.617188 432.433594 375.851562 432.640625 376.214844 432.71875 C 376.878906 432.859375 377.4375 432.617188 377.984375 432.285156 C 380.980469 430.464844 382.085938 427.539062 382.664062 424.339844 C 383.128906 421.785156 382.871094 419.175781 383.109375 416.601562 C 383.28125 414.734375 383.832031 413.039062 384.980469 411.550781 C 385.449219 410.945312 385.972656 410.363281 387.019531 410.117188 C 385.511719 412.125 385.070312 414.210938 385.519531 416.394531 C 385.984375 418.65625 387.605469 420.039062 389.777344 420.902344 C 389.488281 421.171875 389.300781 421.34375 389.117188 421.519531 C 387.492188 423.109375 385.910156 424.738281 384.546875 426.558594 C 384.238281 426.972656 383.964844 427.507812 384.464844 427.933594 C 384.953125 428.347656 385.4375 428.058594 385.824219 427.667969 C 386.445312 427.046875 387.058594 426.421875 387.648438 425.769531 C 388.566406 424.75 389.460938 423.703125 390.375 422.65625 C 390.664062 422.941406 390.539062 423.160156 390.507812 423.355469 C 390.015625 426.414062 389.691406 429.488281 389.5 432.582031 C 389.464844 433.1875 389.273438 433.914062 390.011719 434.214844 C 390.71875 434.503906 390.363281 434.816406 390.171875 435.183594 C 388.410156 438.582031 386.476562 441.898438 384.90625 445.390625 C 384.425781 446.453125 383.886719 447.382812 382.675781 447.792969 C 382.183594 447.957031 381.546875 448.304688 381.785156 448.972656 C 382.003906 449.574219 382.667969 449.339844 383.160156 449.328125 C 383.40625 449.320312 383.652344 449.207031 383.890625 449.113281 C 385.09375 448.640625 385.824219 447.707031 386.378906 446.601562 C 388.320312 442.761719 390.285156 438.929688 392.171875 435.066406 C 392.558594 434.273438 393.128906 434.324219 393.785156 434.269531 C 394.476562 434.210938 394.542969 434.707031 394.6875 435.148438 C 396.214844 439.75 398.226562 444.160156 400.257812 448.558594 C 400.957031 450.074219 401.777344 450.546875 403.453125 450.464844 C 403.792969 450.449219 404.128906 450.386719 404.238281 450 C 404.339844 449.648438 404.214844 449.34375 403.933594 449.125 C 403.734375 448.96875 403.503906 448.78125 403.273438 448.75 C 402.175781 448.605469 401.800781 447.785156 401.441406 446.933594 C 401.171875 446.296875 400.902344 445.660156 400.625 445.027344 C 399.199219 441.753906 397.761719 438.484375 396.359375 435.203125 C 396.253906 434.953125 395.757812 434.453125 396.378906 434.324219 C 397.484375 434.089844 397.480469 433.304688 397.519531 432.492188 C 397.632812 430.023438 397.164062 427.582031 397.148438 424.933594 C 398.105469 426.453125 399.011719 427.800781 399.820312 429.207031 C 400.261719 429.980469 401.113281 430.378906 401.613281 430.003906 C 403.050781 428.9375 403.746094 429.835938 404.554688 430.742188 C 404.699219 430.902344 404.890625 431.027344 405.082031 431.132812 C 405.386719 431.300781 405.738281 431.398438 405.976562 431.066406 C 406.1875 430.769531 406.097656 430.449219 405.847656 430.171875 C 405.457031 429.738281 405.074219 429.296875 404.710938 428.839844 C 404.472656 428.535156 404.367188 428.222656 404.71875 427.878906 C 406.632812 425.996094 407.976562 423.65625 409.792969 421.691406 C 410.070312 421.390625 410.289062 421.003906 410.769531 420.839844 C 410.808594 421.066406 410.847656 421.203125 410.855469 421.339844 C 411.09375 425.996094 411.324219 430.648438 411.5625 435.300781 C 411.585938 435.722656 411.46875 436.058594 411.1875 436.394531 C 410.304688 437.464844 409.460938 438.566406 408.601562 439.660156 C 406.660156 442.140625 404.925781 444.753906 403.390625 447.5 C 403.238281 447.773438 402.976562 448.085938 403.324219 448.375 C 403.589844 448.597656 403.921875 448.597656 404.265625 448.484375 C 404.679688 448.347656 404.933594 448.054688 405.160156 447.714844 C 405.738281 446.828125 406.332031 445.949219 406.902344 445.058594 C 408.675781 442.289062 410.738281 439.730469 412.71875 437.058594 C 412.855469 437.257812 412.949219 437.367188 413.015625 437.488281 C 415.222656 441.351562 417.433594 445.214844 419.625 449.085938 C 420.058594 449.859375 420.609375 450.441406 421.523438 450.59375 C 421.890625 450.65625 422.273438 450.746094 422.484375 450.316406 C 422.679688 449.917969 422.492188 449.550781 422.183594 449.359375 C 421.222656 448.75 420.84375 447.746094 420.332031 446.832031 C 418.660156 443.835938 417.128906 440.757812 415.136719 437.953125 C 413.625 435.832031 412.515625 433.667969 412.808594 430.957031 C 412.929688 429.8125 412.75 428.632812 412.683594 427.46875 C 412.539062 424.929688 412.382812 422.394531 412.222656 419.796875 C 413.019531 419.917969 413.519531 420.359375 413.996094 420.875 C 415.148438 422.121094 415.90625 423.636719 416.867188 425.011719 C 418.25 426.988281 419.675781 428.9375 421.671875 430.382812 C 421.988281 430.613281 422.359375 430.960938 422.722656 430.523438 C 423.03125 430.160156 422.84375 429.757812 422.546875 429.445312 C 420.101562 426.898438 418.136719 424 416.183594 421.082031 C 415.378906 419.882812 414.414062 418.738281 412.84375 418.378906 C 412.570312 418.320312 412.050781 418.527344 412.050781 418.046875 C 412.054688 417.644531 412.558594 417.710938 412.839844 417.613281 C 416.808594 416.261719 418.273438 412.421875 416.160156 408.820312 C 415.804688 408.214844 415.34375 407.667969 414.855469 406.988281 C 415.859375 407.28125 416.34375 407.984375 416.871094 408.617188 C 417.804688 409.746094 418.679688 410.917969 419.625 412.03125 C 421.761719 414.550781 424.40625 416.351562 427.625 417.210938 C 429.847656 417.804688 431.871094 417.296875 433.503906 415.648438 C 434.78125 414.371094 434.675781 411.976562 433.371094 410.933594 Z M 394.777344 432.617188 C 394.335938 432.597656 393.894531 432.617188 393.453125 432.617188 C 391.082031 432.609375 391.042969 432.605469 391.304688 430.296875 C 391.605469 427.628906 392.003906 424.96875 392.332031 422.300781 C 392.421875 421.582031 392.632812 421.246094 393.496094 421.328125 C 395.3125 421.5 395.277344 421.441406 395.378906 423.167969 C 395.542969 425.886719 395.753906 428.601562 395.96875 431.316406 C 396.082031 432.65625 396.074219 432.683594 394.777344 432.617188 Z M 394.6875 419.558594 C 393.40625 419.433594 391.816406 419.496094 390.273438 419.101562 C 387.988281 418.523438 386.71875 416.851562 386.910156 414.519531 C 387.097656 412.214844 388.027344 410.125 390.277344 409.285156 C 392.460938 408.46875 394.878906 408.335938 397.171875 409.027344 C 399.222656 409.644531 400.742188 411.035156 401.703125 412.933594 C 402.964844 415.425781 402.023438 417.738281 399.382812 418.738281 C 398.664062 419.007812 397.929688 419.265625 397.175781 419.402344 C 396.460938 419.535156 395.714844 419.503906 394.6875 419.558594 Z M 402.5 426.746094 C 402.714844 427.710938 402.050781 428.039062 401.476562 428.457031 C 401.136719 428.707031 401.054688 428.355469 400.9375 428.144531 C 399.71875 425.90625 398.503906 423.660156 397.261719 421.367188 C 399.230469 420.816406 401.09375 420.160156 402.691406 418.347656 C 402.582031 419.605469 402.503906 420.566406 402.410156 421.527344 C 402.246094 423.269531 402.113281 425.023438 402.5 426.746094 Z M 411.3125 416.273438 C 410.984375 416.300781 410.652344 416.277344 410.320312 416.277344 C 407.609375 416.308594 406.695312 415.300781 406.96875 412.585938 C 407.269531 409.605469 408.839844 407.777344 411.421875 407.414062 C 412.40625 407.273438 413.242188 407.484375 413.828125 408.347656 C 414.132812 408.800781 414.46875 409.238281 414.746094 409.703125 C 416.566406 412.738281 414.890625 415.941406 411.3125 416.273438 Z M 397.949219 414.496094 C 397.667969 416.242188 395.40625 418.234375 393.507812 418.222656 C 392.332031 418.113281 391.179688 417.5 390.132812 416.679688 C 389.863281 416.46875 389.699219 416.160156 389.890625 415.8125 C 390.078125 415.472656 390.40625 415.421875 390.746094 415.550781 C 391.394531 415.789062 392.054688 416.015625 392.679688 416.316406 C 393.714844 416.8125 394.59375 416.640625 395.363281 415.824219 C 395.910156 415.238281 396.433594 414.628906 396.980469 414.042969 C 397.175781 413.839844 397.402344 413.554688 397.71875 413.726562 C 398 413.878906 398 414.1875 397.949219 414.496094 Z M 394.085938 411.007812 C 394.113281 410.320312 394.625 410.015625 395.226562 409.933594 C 395.726562 409.867188 396.082031 410.160156 396.085938 410.679688 C 396.089844 411.398438 395.597656 411.65625 395.027344 411.726562 C 394.46875 411.722656 394.0625 411.570312 394.085938 411.007812 Z M 389.300781 411.800781 C 389.351562 411.308594 389.425781 410.75 390.136719 410.765625 C 390.632812 410.773438 390.832031 411.089844 390.832031 411.492188 C 390.867188 412.132812 390.527344 412.421875 389.988281 412.445312 C 389.585938 412.460938 389.25 412.25 389.300781 411.800781 Z M 413.390625 412.632812 C 412.949219 413.933594 411.265625 415.242188 409.925781 415.226562 C 409.265625 415.15625 408.554688 414.988281 408.082031 414.351562 C 407.882812 414.089844 407.761719 413.777344 407.984375 413.445312 C 408.183594 413.148438 408.5 413.105469 408.765625 413.210938 C 410.324219 413.835938 411.253906 412.960938 412.117188 411.886719 C 412.382812 411.558594 412.714844 411.289062 413.148438 411.570312 C 413.539062 411.824219 413.535156 412.203125 413.390625 412.632812 Z M 411.148438 409.867188 C 411.171875 409.375 411.488281 409.105469 411.976562 409.046875 C 412.464844 409.085938 412.699219 409.359375 412.691406 409.820312 C 412.683594 410.335938 412.410156 410.617188 411.882812 410.605469 C 411.40625 410.597656 411.128906 410.328125 411.148438 409.867188 Z M 407.789062 410.691406 C 407.769531 410.210938 408.019531 409.960938 408.484375 409.914062 C 408.925781 409.933594 409.175781 410.152344 409.195312 410.578125 C 409.214844 411.050781 408.96875 411.335938 408.488281 411.34375 C 408.070312 411.355469 407.804688 411.128906 407.789062 410.691406 Z M 407.789062 410.691406 " fill-opacity="1" fill-rule="nonzero"/></g></svg>