<?xml version="1.0" encoding="UTF-8"?><svg xmlns="http://www.w3.org/2000/svg" xmlns:xlink="http://www.w3.org/1999/xlink" width="810" zoomAndPan="magnify" viewBox="0 0 810 809.999993" height="809.999993" preserveAspectRatio="xMidYMid meet" version="1.0"><defs><clipPath id="clip-0"><path d="M 405 405 L 434 405 L 434 448.5 L 405 448.5 Z M 405 405 " clip-rule="nonzero"/></clipPath></defs><path fill="rgb(99.609375%, 91.758728%, 47.059631%)" d="M 415.328125 434.160156 C 413.472656 429.171875 409.25 424.511719 406.757812 422.925781 C 406.296875 422.628906 406.34375 421.9375 406.84375 421.71875 C 409.855469 420.414062 416.515625 417.367188 418.273438 415.199219 C 420.117188 412.921875 423.34375 408.269531 424.527344 406.542969 C 424.691406 406.304688 425.0625 406.386719 425.109375 406.675781 C 425.609375 409.617188 427.488281 419.816406 429.722656 421.519531 C 430.957031 422.460938 431.828125 423.027344 432.402344 423.367188 C 432.867188 423.640625 432.988281 424.261719 432.65625 424.691406 C 430.65625 427.273438 424.746094 435.058594 422.851562 439.167969 C 421.34375 442.445312 420.828125 445.292969 420.652344 446.859375 C 420.621094 447.15625 420.214844 447.207031 420.109375 446.925781 C 419.195312 444.496094 417.070312 438.847656 415.328125 434.160156 " fill-opacity="1" fill-rule="nonzero"/><g clip-path="url(#clip-0)"><path fill="rgb(0%, 0%, 0%)" d="M 416.414062 433.855469 C 415.25 430.777344 413.453125 427.992188 411.300781 425.535156 C 410.449219 424.558594 409.53125 423.632812 408.523438 422.820312 C 408.277344 422.621094 408.03125 422.425781 407.773438 422.242188 C 407.683594 422.175781 407.597656 422.105469 407.5 422.050781 C 407.460938 422.027344 407.414062 421.976562 407.371094 421.964844 C 407.230469 421.867188 407.289062 421.953125 407.550781 422.226562 C 407.546875 422.308594 407.546875 422.394531 407.542969 422.480469 C 407.484375 422.679688 407.324219 422.667969 407.503906 422.667969 C 407.585938 422.664062 407.722656 422.574219 407.796875 422.539062 C 408.050781 422.429688 408.300781 422.316406 408.550781 422.207031 C 410.925781 421.144531 413.292969 420.019531 415.535156 418.6875 C 416.542969 418.089844 417.542969 417.441406 418.425781 416.660156 C 419.265625 415.917969 419.910156 414.941406 420.578125 414.046875 C 421.511719 412.796875 422.417969 411.53125 423.316406 410.257812 C 423.738281 409.660156 424.152344 409.0625 424.570312 408.464844 C 424.730469 408.234375 424.894531 408 425.054688 407.765625 C 425.132812 407.652344 425.210938 407.539062 425.292969 407.421875 C 425.320312 407.382812 425.347656 407.34375 425.371094 407.304688 C 425.5 407.105469 425.492188 407.300781 425.273438 407.402344 C 425.085938 407.457031 424.894531 407.507812 424.707031 407.558594 C 424.5625 407.496094 424.417969 407.4375 424.277344 407.375 C 424.179688 407.207031 424.082031 407.039062 423.988281 406.871094 C 424.140625 407.308594 424.171875 407.824219 424.253906 408.28125 C 424.371094 408.90625 424.488281 409.527344 424.613281 410.148438 C 424.910156 411.636719 425.238281 413.121094 425.613281 414.589844 C 425.984375 416.0625 426.402344 417.535156 426.949219 418.949219 C 427.375 420.050781 427.851562 421.25 428.683594 422.109375 C 429.289062 422.730469 430.09375 423.21875 430.804688 423.699219 C 431.078125 423.882812 431.363281 424.113281 431.664062 424.25 C 431.910156 424.367188 431.734375 424.382812 431.726562 424.207031 C 431.722656 424.046875 431.878906 423.839844 431.714844 424.070312 C 430.9375 425.144531 430.101562 426.179688 429.308594 427.242188 C 427.261719 429.996094 425.242188 432.792969 423.449219 435.730469 C 422.421875 437.421875 421.550781 439.167969 420.878906 441.039062 C 420.507812 442.078125 420.199219 443.140625 419.960938 444.222656 C 419.863281 444.660156 419.78125 445.101562 419.707031 445.542969 C 419.675781 445.742188 419.648438 445.9375 419.621094 446.136719 C 419.601562 446.273438 419.589844 446.414062 419.566406 446.550781 C 419.554688 446.613281 419.46875 446.871094 419.535156 446.667969 C 419.628906 446.5 419.726562 446.328125 419.824219 446.160156 C 419.847656 446.144531 419.867188 446.128906 419.890625 446.113281 C 420.078125 446.058594 420.269531 446.007812 420.457031 445.957031 C 420.550781 445.984375 420.644531 446.011719 420.738281 446.039062 C 420.871094 446.175781 421.007812 446.3125 421.140625 446.449219 C 421.234375 446.597656 421.125 446.4375 421.105469 446.386719 C 421.066406 446.300781 421.039062 446.214844 421.007812 446.128906 C 420.9375 445.941406 420.867188 445.757812 420.796875 445.570312 C 420.632812 445.132812 420.46875 444.699219 420.304688 444.261719 C 419.910156 443.203125 419.511719 442.144531 419.113281 441.085938 C 418.210938 438.675781 417.308594 436.269531 416.414062 433.855469 C 416.199219 433.28125 415.652344 432.882812 415.027344 433.058594 C 414.484375 433.210938 414.027344 433.882812 414.242188 434.464844 C 415.726562 438.449219 417.21875 442.429688 418.714844 446.410156 C 418.835938 446.726562 418.941406 447.054688 419.082031 447.367188 C 419.371094 448.023438 420.058594 448.398438 420.757812 448.203125 C 421.410156 448.019531 421.707031 447.441406 421.785156 446.808594 C 421.816406 446.550781 421.847656 446.320312 421.921875 445.894531 C 422.289062 443.777344 422.925781 441.691406 423.824219 439.746094 C 425.261719 436.636719 427.34375 433.800781 429.324219 431.035156 C 430.308594 429.660156 431.316406 428.300781 432.335938 426.953125 C 432.476562 426.769531 432.378906 426.898438 432.542969 426.683594 C 432.625 426.570312 432.710938 426.460938 432.796875 426.347656 C 432.972656 426.117188 433.152344 425.886719 433.328125 425.65625 C 434.027344 424.75 434.25 423.578125 433.367188 422.6875 C 433.09375 422.414062 432.726562 422.238281 432.402344 422.03125 C 431.992188 421.765625 431.585938 421.484375 431.1875 421.195312 C 430.886719 420.980469 430.574219 420.785156 430.324219 420.539062 C 430.257812 420.472656 430.195312 420.398438 430.132812 420.328125 C 429.960938 420.144531 430.234375 420.480469 430.140625 420.34375 C 430.101562 420.285156 430.0625 420.230469 430.023438 420.171875 C 429.257812 419.011719 428.9375 417.953125 428.515625 416.59375 C 427.585938 413.621094 426.945312 410.550781 426.390625 407.484375 C 426.28125 406.867188 426.257812 406.140625 425.796875 405.671875 C 425.355469 405.226562 424.625 405.140625 424.089844 405.449219 C 423.703125 405.671875 423.480469 406.074219 423.234375 406.433594 C 422.25 407.859375 421.257812 409.28125 420.246094 410.6875 C 419.289062 412.023438 418.371094 413.472656 417.238281 414.660156 C 416.269531 415.675781 414.882812 416.457031 413.550781 417.203125 C 411.96875 418.089844 410.339844 418.886719 408.695312 419.648438 C 408.003906 419.96875 407.308594 420.28125 406.613281 420.585938 C 405.636719 421.011719 404.996094 422.003906 405.480469 423.082031 C 405.8125 423.835938 406.71875 424.25 407.234375 424.683594 C 407.914062 425.257812 408.550781 425.882812 409.15625 426.535156 C 410.570312 428.058594 411.8125 429.738281 412.84375 431.546875 C 413.378906 432.484375 413.859375 433.453125 414.242188 434.464844 C 414.460938 435.042969 415 435.441406 415.628906 435.265625 C 416.167969 435.113281 416.632812 434.4375 416.414062 433.855469 Z M 416.414062 433.855469 " fill-opacity="1" fill-rule="nonzero"/></g></svg>