<?xml version="1.0" encoding="UTF-8"?><svg xmlns="http://www.w3.org/2000/svg" xmlns:xlink="http://www.w3.org/1999/xlink" width="810" zoomAndPan="magnify" viewBox="0 0 810 809.999993" height="809.999993" preserveAspectRatio="xMidYMid meet" version="1.0"><defs><clipPath id="clip-0"><path d="M 391.242188 335.480469 L 449.742188 335.480469 L 449.742188 414.980469 L 391.242188 414.980469 Z M 391.242188 335.480469 " clip-rule="nonzero"/></clipPath></defs><g clip-path="url(#clip-0)"><path fill="rgb(97.648621%, 87.449646%, 15.689087%)" d="M 449.460938 366.296875 C 449.304688 366.113281 449.09375 365.890625 448.882812 365.863281 C 448.226562 365.769531 447.652344 365.308594 446.890625 365.621094 C 446.449219 365.804688 445.929688 365.933594 445.417969 366.015625 C 445.011719 366.078125 444.660156 366.371094 444.242188 366.488281 C 443.816406 366.609375 443.398438 366.792969 442.984375 366.945312 C 442.492188 367.125 441.949219 367.261719 441.449219 367.429688 C 440.707031 367.679688 440.035156 368.125 439.332031 368.488281 C 438.855469 368.734375 438.371094 368.957031 437.871094 369.148438 C 437.726562 369.203125 437.601562 369.160156 437.523438 368.929688 C 437.398438 368.558594 437.480469 368.171875 437.359375 367.8125 C 437.210938 367.378906 437.039062 366.96875 437.011719 366.492188 C 436.980469 365.980469 436.769531 365.496094 436.519531 365.039062 C 436.359375 364.753906 436.476562 364.527344 436.796875 364.523438 C 437 364.519531 437.171875 364.46875 437.324219 364.339844 C 437.585938 364.121094 437.949219 364.085938 438.210938 363.894531 C 438.75 363.503906 439.390625 363.28125 439.890625 362.808594 C 440.253906 362.464844 440.5625 362.082031 440.898438 361.722656 C 441.191406 361.414062 441.503906 361.140625 441.835938 360.886719 C 442.285156 360.539062 442.613281 360.082031 442.980469 359.664062 C 443.167969 359.453125 443.390625 359.269531 443.625 359.117188 C 443.835938 358.976562 444.066406 358.722656 444.351562 359.023438 C 444.351562 359.023438 444.433594 358.960938 444.46875 358.917969 C 444.714844 358.59375 445.097656 358.40625 445.300781 358.03125 C 445.421875 357.808594 445.582031 357.574219 445.789062 357.4375 C 446.007812 357.289062 445.984375 357.125 445.925781 356.957031 C 445.859375 356.757812 445.738281 356.546875 445.484375 356.613281 C 445.390625 356.640625 445.417969 356.632812 445.355469 356.574219 C 445.121094 356.367188 444.648438 356.199219 444.550781 356.367188 C 444.398438 356.628906 444.296875 356.496094 444.183594 356.453125 C 444.035156 356.390625 443.941406 356.480469 443.839844 356.53125 C 443.015625 356.9375 442.203125 357.351562 441.476562 357.9375 C 440.753906 358.519531 439.96875 359.027344 439.234375 359.59375 C 438.8125 359.921875 438.402344 360.257812 437.933594 360.523438 C 437.246094 360.914062 436.558594 361.308594 435.949219 361.824219 C 435.609375 362.109375 435.441406 362.046875 435.40625 361.617188 C 435.375 361.199219 435.238281 360.859375 434.960938 360.558594 C 434.859375 360.449219 434.78125 360.3125 434.730469 360.171875 C 434.566406 359.714844 434.214844 359.375 433.984375 358.957031 C 433.929688 358.851562 433.675781 358.867188 433.71875 358.632812 C 433.738281 358.503906 433.664062 358.40625 433.546875 358.394531 C 433.414062 358.382812 433.558594 358.609375 433.398438 358.613281 C 433.042969 358.125 433.0625 358.0625 433.640625 357.90625 C 433.675781 357.894531 433.730469 357.921875 433.761719 357.90625 C 434.117188 357.714844 434.640625 357.804688 434.808594 357.285156 C 434.824219 357.238281 434.882812 357.242188 434.894531 357.289062 C 434.960938 357.515625 435.011719 357.390625 435.074219 357.285156 C 435.21875 357.023438 435.472656 356.886719 435.714844 356.742188 C 436.261719 356.40625 436.847656 356.082031 437.25 355.605469 C 437.851562 354.898438 438.761719 354.609375 439.34375 353.875 C 439.496094 353.679688 439.765625 353.429688 440.085938 353.347656 C 440.496094 353.238281 440.792969 352.929688 441.074219 352.648438 C 441.25 352.46875 441.386719 352.28125 441.613281 352.144531 C 441.757812 352.058594 441.984375 352.0625 442.046875 351.921875 C 442.179688 351.601562 442.421875 351.414062 442.699219 351.253906 C 443.113281 351.011719 443.46875 350.691406 443.78125 350.34375 C 443.90625 350.203125 444.128906 350 444.003906 349.691406 C 443.875 349.382812 443.183594 348.9375 442.859375 349.039062 C 442.417969 349.175781 441.960938 349.226562 441.53125 349.472656 C 441.292969 349.609375 441.164062 349.925781 440.878906 349.925781 C 440.644531 349.925781 440.460938 350.085938 440.359375 350.183594 C 439.894531 350.632812 439.351562 350.984375 438.832031 351.335938 C 437.960938 351.933594 437.109375 352.558594 436.207031 353.113281 C 435.496094 353.546875 434.792969 354.03125 434.195312 354.605469 C 433.574219 355.207031 432.816406 355.652344 432.289062 356.351562 C 432.175781 356.496094 432.105469 356.453125 431.992188 356.3125 C 431.59375 355.828125 431.207031 355.316406 430.675781 354.964844 C 430.367188 354.765625 430.304688 354.269531 429.828125 354.289062 C 429.78125 354.289062 429.722656 354.253906 429.6875 354.214844 C 429.222656 353.695312 428.722656 353.222656 428.101562 352.882812 C 428.046875 352.851562 427.929688 352.847656 427.96875 352.726562 C 428.109375 352.835938 428.171875 352.488281 428.253906 352.640625 C 428.390625 352.894531 428.566406 352.523438 428.675781 352.703125 C 428.816406 352.582031 429 352.527344 429.15625 352.449219 C 429.519531 352.257812 429.957031 352.148438 430.335938 352.078125 C 430.933594 351.96875 431.359375 351.519531 431.972656 351.453125 C 432.195312 351.429688 432.503906 351.386719 432.769531 351.257812 C 433.074219 351.109375 433.398438 350.914062 433.800781 350.929688 C 434.210938 350.949219 434.632812 350.363281 434.542969 350.011719 C 434.464844 349.703125 433.507812 348.984375 433.195312 349.066406 C 432.578125 349.230469 431.941406 349.171875 431.3125 349.324219 C 430.691406 349.476562 430.101562 349.703125 429.542969 349.941406 C 428.71875 350.292969 427.851562 350.613281 427.117188 351.167969 C 426.988281 351.265625 426.773438 351.308594 426.714844 351.398438 C 426.5 351.753906 426.234375 351.722656 425.914062 351.613281 C 425.667969 351.53125 425.53125 351.453125 425.800781 351.226562 C 425.859375 351.179688 425.96875 351.132812 425.898438 350.996094 C 425.734375 350.683594 425.9375 350.339844 426.285156 350.390625 C 426.472656 350.417969 426.53125 350.347656 426.601562 350.238281 C 426.625 350.203125 426.621094 350.117188 426.597656 350.085938 C 426.460938 349.945312 426.464844 350.304688 426.285156 350.136719 C 426.332031 350.003906 426.476562 349.894531 426.496094 349.714844 C 426.519531 349.445312 426.558594 349.449219 426.789062 349.632812 C 426.902344 349.71875 426.953125 349.710938 426.933594 349.644531 C 426.871094 349.417969 427.300781 349.394531 427.125 349.136719 C 427.484375 348.898438 427.699219 348.488281 428.101562 348.285156 C 428.203125 348.234375 428.335938 348.121094 428.265625 347.894531 C 428.207031 347.703125 428.375 347.429688 428.550781 347.390625 C 428.800781 347.335938 428.925781 347.214844 429.015625 347.011719 C 429.144531 346.714844 429.335938 346.464844 429.523438 346.203125 C 429.917969 345.65625 430.328125 345.117188 430.664062 344.535156 C 430.898438 344.125 431.148438 343.71875 431.449219 343.367188 C 431.964844 342.761719 432.25 342.152344 431.992188 341.351562 C 431.945312 341.199219 431.859375 341.152344 431.761719 341.117188 C 431.648438 341.078125 431.585938 341.15625 431.574219 341.273438 C 431.566406 341.347656 431.527344 341.402344 431.457031 341.429688 C 431.359375 341.179688 431.355469 341.179688 431.042969 341.136719 C 430.96875 341.125 431.011719 341.050781 430.996094 341.007812 C 430.957031 340.90625 430.882812 340.878906 430.78125 340.847656 C 430.554688 340.789062 430.394531 340.871094 430.347656 341.078125 C 430.285156 341.347656 429.933594 341.164062 429.875 341.414062 C 429.730469 341.367188 429.824219 341.230469 429.773438 341.136719 C 429.648438 341.207031 429.480469 341.304688 429.429688 341.375 C 429.265625 341.589844 429.003906 341.386719 428.878906 341.554688 C 428.652344 341.855469 428.257812 341.921875 428.0625 342.316406 C 427.8125 342.820312 427.308594 343.175781 427.027344 343.6875 C 427 343.742188 426.972656 343.808594 426.886719 343.800781 C 426.554688 343.769531 426.472656 344.042969 426.332031 344.253906 C 426.132812 344.550781 426.085938 345.003906 425.585938 345.019531 C 425.546875 345.019531 425.492188 345.113281 425.472656 345.171875 C 425.285156 345.667969 424.816406 345.980469 424.648438 346.484375 C 424.640625 346.511719 424.621094 346.53125 424.601562 346.550781 C 424.21875 346.941406 423.921875 347.386719 423.695312 347.882812 C 423.445312 348.425781 423.175781 348.960938 422.910156 349.5 C 422.792969 349.734375 422.71875 350.109375 422.539062 350.167969 C 422.3125 350.238281 422.003906 350.058594 421.734375 349.980469 C 421.585938 349.941406 421.4375 349.894531 421.289062 349.847656 C 421.34375 349.699219 421.46875 349.628906 421.523438 349.492188 C 421.871094 348.632812 422.667969 348.015625 422.800781 347.035156 C 422.863281 346.585938 423.242188 346.277344 423.414062 345.867188 C 423.539062 345.570312 423.539062 345.257812 423.621094 344.957031 C 423.6875 344.714844 423.96875 344.476562 423.738281 344.179688 C 423.730469 344.171875 423.761719 344.113281 423.769531 344.113281 C 424.140625 344.164062 423.929688 343.820312 424.050781 343.691406 C 424.214844 343.523438 424.050781 343.292969 424.171875 343.070312 C 424.476562 342.511719 424.527344 341.855469 424.714844 341.246094 C 424.773438 341.050781 424.667969 340.847656 424.636719 340.683594 C 424.519531 340.15625 424.742188 339.765625 424.96875 339.355469 C 425.199219 339.589844 424.914062 339.800781 424.929688 340.03125 C 424.9375 340.09375 424.882812 340.15625 424.984375 340.175781 C 425.039062 340.183594 425.097656 340.167969 425.117188 340.109375 C 425.164062 339.929688 425.25 339.746094 425.246094 339.566406 C 425.238281 339.40625 425.449219 339.21875 425.25 339.09375 C 425.078125 338.988281 425.175781 339.382812 424.96875 339.296875 C 424.941406 339.117188 424.664062 338.933594 425.003906 338.753906 C 425.074219 338.714844 425.074219 338.453125 424.957031 338.40625 C 424.785156 338.339844 424.765625 338.039062 424.503906 338.132812 C 424.433594 338.15625 424.453125 338.175781 424.449219 338.234375 C 424.441406 338.453125 424.371094 338.628906 424.101562 338.628906 C 423.800781 338.628906 423.953125 338.359375 423.859375 338.238281 C 423.425781 338.335938 423.058594 338.582031 422.695312 338.8125 C 422.074219 339.207031 421.742188 339.886719 421.300781 340.441406 C 420.902344 340.945312 420.589844 341.597656 420.398438 342.21875 C 420.261719 342.65625 419.757812 343.070312 420.09375 343.625 C 420.105469 343.644531 420.070312 343.730469 420.054688 343.730469 C 419.691406 343.773438 419.664062 344.160156 419.59375 344.351562 C 419.453125 344.738281 419.175781 345.058594 419.113281 345.492188 C 419.074219 345.777344 419.140625 346.148438 418.84375 346.351562 C 418.636719 346.492188 418.601562 346.6875 418.582031 346.894531 C 418.539062 347.398438 418.132812 347.835938 418.320312 348.378906 C 418.328125 348.402344 418.28125 348.449219 418.257812 348.484375 C 418.132812 348.675781 418.070312 348.863281 418.183594 349.101562 C 418.273438 349.285156 418.136719 349.453125 417.96875 349.4375 C 417.789062 349.421875 417.625 349.460938 417.453125 349.464844 C 417.167969 349.46875 417.246094 349.230469 417.175781 349.085938 C 417.386719 349.042969 417.296875 348.824219 417.398438 348.710938 C 417.851562 348.207031 417.871094 347.609375 417.75 346.988281 C 417.726562 346.878906 417.667969 346.757812 417.734375 346.671875 C 418.03125 346.28125 417.890625 345.796875 418.015625 345.363281 C 418.179688 344.808594 418.230469 344.21875 418.210938 343.625 C 418.191406 343.046875 418.257812 342.464844 418.367188 341.886719 C 418.46875 341.339844 418.40625 340.773438 418.660156 340.242188 C 418.785156 339.984375 418.78125 339.667969 418.78125 339.363281 C 418.785156 338.960938 418.730469 338.550781 418.84375 338.152344 C 418.941406 337.804688 419.128906 337.464844 418.90625 337.097656 C 418.851562 337.007812 418.820312 336.902344 418.863281 336.820312 C 419.054688 336.472656 418.796875 336.304688 418.582031 336.160156 C 418.410156 336.050781 418.199219 336 418.007812 335.902344 C 417.746094 335.765625 417.367188 335.496094 417.363281 336.140625 C 417.226562 336.09375 417.304688 336.011719 417.28125 335.960938 C 417.203125 335.808594 417.15625 335.566406 416.929688 335.65625 C 416.792969 335.714844 416.464844 335.699219 416.601562 336.035156 C 416.644531 336.132812 416.578125 336.214844 416.492188 336.210938 C 416.371094 336.207031 416.195312 336.308594 416.144531 336.117188 C 416.101562 335.945312 415.949219 335.878906 415.863281 335.933594 C 415.699219 336.039062 415.496094 335.988281 415.367188 336.070312 C 415.09375 336.242188 414.617188 336.179688 414.574219 336.621094 C 414.554688 336.820312 414.488281 336.992188 414.378906 337.097656 C 414.03125 337.429688 414.054688 337.898438 414.0625 338.265625 C 414.082031 339 413.960938 339.714844 413.890625 340.433594 C 413.832031 341.0625 413.570312 341.675781 413.746094 342.328125 C 413.78125 342.453125 413.832031 342.578125 413.832031 342.722656 C 413.839844 343.214844 413.628906 343.671875 413.710938 344.191406 C 413.847656 345.078125 413.6875 345.976562 413.566406 346.859375 C 413.5 347.339844 413.414062 347.878906 413.578125 348.261719 C 413.800781 348.792969 413.667969 349.226562 413.582031 349.707031 C 413.5625 349.820312 413.550781 349.941406 413.34375 349.972656 C 412.964844 350.023438 412.597656 350.179688 412.21875 350.269531 C 411.566406 350.417969 410.980469 350.75 410.355469 350.976562 C 410.09375 351.070312 409.929688 350.980469 409.757812 350.859375 C 409.429688 350.628906 409.234375 350.261719 408.925781 349.992188 C 408.65625 349.761719 408.351562 349.523438 408.128906 349.230469 C 408.007812 349.070312 407.957031 348.859375 407.71875 348.804688 C 407.265625 348.703125 407.0625 348.308594 406.804688 347.984375 C 406.59375 347.714844 406.367188 347.449219 406.214844 347.140625 C 406.199219 347.109375 406.140625 347.070312 406.125 347.078125 C 405.671875 347.308594 405.453125 346.859375 405.199219 346.6875 C 404.878906 346.464844 404.492188 346.515625 404.199219 346.292969 C 404.167969 346.269531 404.050781 346.339844 403.984375 346.382812 C 403.933594 346.421875 403.882812 346.515625 403.820312 346.460938 C 403.554688 346.226562 403.574219 346.402344 403.582031 346.613281 C 403.59375 346.824219 403.566406 346.871094 403.492188 346.839844 C 403.386719 346.792969 403.160156 347.058594 403.160156 346.707031 C 403.160156 346.570312 403.023438 346.460938 402.9375 346.667969 C 402.890625 346.789062 402.875 346.777344 402.785156 346.722656 C 402.539062 346.578125 402.335938 346.78125 402.246094 346.917969 C 402.144531 347.074219 402.121094 347.328125 402.277344 347.527344 C 402.960938 348.410156 403.828125 349.109375 404.621094 349.882812 C 405.222656 350.46875 405.867188 351.007812 406.503906 351.558594 C 406.820312 351.835938 407.019531 352.222656 407.503906 352.492188 C 407.078125 352.496094 406.878906 352.785156 406.59375 352.78125 C 406.03125 352.773438 405.886719 353.328125 405.507812 353.566406 C 405.34375 353.671875 405.238281 353.828125 405.007812 353.816406 C 404.722656 353.800781 404.449219 353.753906 404.175781 353.664062 C 403.085938 353.308594 402.035156 352.832031 400.855469 352.800781 C 400.464844 352.792969 400.078125 352.636719 399.6875 352.613281 C 399.121094 352.574219 398.566406 352.585938 398.015625 352.367188 C 397.511719 352.171875 396.957031 352.132812 396.417969 352.0625 C 395.765625 351.972656 395.058594 352.035156 394.46875 352.332031 C 394.421875 352.355469 394.386719 352.324219 394.335938 352.28125 C 394.164062 352.128906 393.988281 352.304688 393.847656 352.351562 C 393.707031 352.398438 393.863281 352.71875 393.652344 352.832031 C 393.988281 352.921875 394.117188 353.324219 394.417969 353.410156 C 395.171875 353.621094 395.882812 353.992188 396.691406 354.039062 C 397.226562 354.070312 397.753906 354.222656 398.285156 354.300781 C 399.085938 354.414062 399.925781 354.382812 400.679688 354.597656 C 401.519531 354.835938 402.386719 354.917969 403.210938 355.203125 C 403.410156 355.273438 403.429688 355.257812 403.347656 355.464844 C 403.222656 355.773438 402.894531 355.914062 402.769531 356.144531 C 402.480469 356.683594 401.894531 356.972656 401.683594 357.550781 C 401.660156 357.613281 401.621094 357.703125 401.570312 357.71875 C 401.074219 357.863281 401.054688 358.339844 400.835938 358.691406 C 400.695312 358.914062 400.730469 359.394531 400.230469 359.316406 C 400.089844 359.296875 400.0625 359.433594 400.09375 359.585938 C 400.136719 359.804688 399.867188 359.8125 399.785156 359.960938 C 399.5 359.769531 399.558594 360.007812 399.542969 360.15625 C 399.539062 360.234375 399.5625 360.371094 399.523438 360.390625 C 399.1875 360.574219 399.140625 360.90625 399.140625 361.21875 C 399.140625 361.496094 398.976562 361.464844 398.832031 361.445312 C 398.675781 361.417969 398.542969 361.320312 398.453125 361.1875 C 398.574219 361.050781 398.699219 361.210938 398.84375 361.109375 C 398.246094 360.765625 397.582031 360.847656 396.976562 360.765625 C 396.660156 360.722656 396.390625 360.632812 396.121094 360.523438 C 395.726562 360.367188 395.359375 360.148438 394.917969 360.128906 C 394.535156 360.109375 394.152344 359.816406 393.78125 360.164062 C 393.730469 360.210938 393.691406 360.167969 393.640625 360.152344 C 392.792969 359.867188 392.109375 360.300781 391.414062 360.667969 C 391.234375 360.761719 391.304688 360.976562 391.503906 361.074219 C 391.613281 361.128906 391.765625 361.214844 391.730469 361.371094 C 391.664062 361.644531 391.953125 361.75 392.03125 361.761719 C 392.632812 361.859375 393.148438 362.214844 393.722656 362.328125 C 394.375 362.457031 395.066406 362.410156 395.738281 362.398438 C 396.421875 362.386719 397.101562 362.320312 397.785156 362.289062 C 397.894531 362.285156 398.050781 362.210938 398.117188 362.347656 C 398.179688 362.488281 398.074219 362.613281 397.988281 362.714844 C 397.367188 363.46875 397.21875 364.453125 396.757812 365.289062 C 396.472656 365.800781 396.421875 366.433594 396.21875 367 C 396.082031 367.375 396.117188 367.796875 396.234375 368.183594 C 396.292969 368.378906 396.449219 368.527344 396.183594 368.699219 C 396.078125 368.769531 396.019531 368.960938 396.089844 369.113281 C 396.34375 369.652344 396.511719 370.203125 396.378906 370.808594 C 396.347656 370.953125 396.429688 371.085938 396.5 371.183594 C 396.984375 371.878906 397.136719 372.765625 397.765625 373.375 C 397.820312 373.429688 397.871094 373.511719 397.878906 373.589844 C 397.988281 374.332031 398.800781 374.53125 399.066406 375.148438 C 399.285156 375.019531 399.3125 375.359375 399.417969 375.320312 C 399.765625 375.183594 399.886719 375.558594 399.929688 375.660156 C 400.191406 376.289062 400.742188 376.640625 401.175781 377.109375 C 401.34375 377.292969 401.546875 377.382812 401.164062 377.625 C 400.761719 377.882812 400.28125 378.121094 400.054688 378.558594 C 399.863281 378.917969 399.628906 379.179688 399.300781 379.394531 C 399.210938 379.457031 399.078125 379.464844 399.042969 379.621094 C 398.964844 379.964844 398.691406 380.203125 398.527344 380.503906 C 398.078125 381.332031 397.425781 382.039062 396.992188 382.882812 C 396.769531 383.3125 396.578125 383.757812 396.351562 384.238281 C 396.539062 384.105469 396.683594 384.144531 396.851562 384.222656 C 396.546875 384.265625 396.617188 384.570312 396.457031 384.703125 C 395.976562 385.109375 395.382812 385.445312 395.550781 386.242188 C 395.558594 386.28125 395.511719 386.339844 395.484375 386.382812 C 394.867188 387.390625 394.746094 388.542969 394.503906 389.660156 C 394.367188 390.296875 394.265625 390.9375 394.226562 391.597656 C 394.1875 392.289062 394.167969 392.980469 394.246094 393.660156 C 394.320312 394.308594 394.335938 394.964844 394.359375 395.613281 C 394.371094 396.035156 394.453125 396.425781 394.511719 396.832031 C 394.585938 397.359375 394.84375 397.824219 394.9375 398.347656 C 395.023438 398.816406 395.191406 399.289062 395.417969 399.707031 C 395.792969 400.417969 396.019531 401.203125 396.542969 401.820312 C 396.558594 401.742188 396.578125 401.640625 396.617188 401.449219 C 396.730469 401.71875 396.976562 401.882812 396.671875 402.082031 C 396.585938 402.140625 396.660156 402.148438 396.695312 402.175781 C 397.171875 402.574219 397.390625 403.226562 397.984375 403.496094 C 398.15625 403.578125 398.324219 403.640625 398.476562 403.769531 C 399.078125 404.277344 399.777344 404.628906 400.503906 404.925781 C 400.714844 405.011719 400.847656 405.222656 401.078125 405.273438 C 401.003906 405.476562 400.875 405.625 400.65625 405.6875 C 400.636719 405.691406 400.632812 405.75 400.617188 405.78125 C 400.464844 406.046875 400.363281 406.339844 400.121094 406.554688 C 399.871094 406.777344 399.734375 407.117188 399.621094 407.386719 C 399.4375 407.828125 399.34375 408.300781 399.042969 408.695312 C 398.992188 408.765625 398.964844 408.875 398.960938 408.964844 C 398.945312 409.320312 398.792969 409.621094 398.640625 409.9375 C 398.53125 410.15625 398.339844 410.324219 398.292969 410.59375 C 398.179688 411.257812 397.769531 411.828125 397.648438 412.496094 C 397.625 412.613281 397.464844 412.574219 397.472656 412.695312 C 397.203125 412.675781 397.359375 412.882812 397.371094 412.941406 C 397.449219 413.347656 397.347656 413.566406 397.003906 413.699219 C 396.9375 413.726562 396.859375 413.804688 396.933594 413.898438 C 396.988281 413.976562 397.050781 414.035156 397.054688 414.144531 C 397.070312 414.59375 397.640625 414.972656 398.082031 414.835938 C 398.117188 414.824219 398.160156 414.832031 398.199219 414.828125 C 398.152344 414.570312 398.617188 414.667969 398.527344 414.335938 C 398.5 414.234375 398.699219 414.230469 398.761719 414.347656 C 398.808594 414.4375 398.804688 414.554688 398.824219 414.675781 C 399.078125 414.144531 399.511719 414.664062 399.820312 414.480469 C 399.890625 414.4375 399.941406 414.410156 400.039062 414.453125 C 400.46875 414.640625 401.332031 414.351562 401.492188 413.921875 C 401.574219 413.699219 401.855469 413.636719 401.847656 413.398438 C 401.832031 412.921875 401.976562 412.484375 402.199219 412.085938 C 402.449219 411.644531 402.289062 411.128906 402.523438 410.6875 C 402.6875 410.378906 402.875 410.066406 402.800781 409.675781 C 402.777344 409.558594 402.820312 409.375 402.902344 409.300781 C 403.097656 409.128906 403.101562 408.925781 403.070312 408.710938 C 403.042969 408.535156 403.09375 408.375 403.121094 408.207031 C 403.207031 407.652344 403.371094 407.109375 403.355469 406.535156 C 403.351562 406.394531 403.304688 406.089844 403.625 406.125 C 404.234375 406.1875 404.84375 406.273438 405.460938 406.25 C 405.976562 406.226562 406.492188 406.246094 407.007812 406.261719 C 407.574219 406.28125 408.125 406.003906 408.699219 405.925781 C 408.960938 405.886719 408.9375 405.957031 408.972656 406.167969 C 409.019531 406.457031 408.738281 406.632812 408.8125 406.90625 C 408.921875 407.324219 408.867188 407.769531 409.019531 408.1875 C 409.089844 408.390625 409.082031 408.648438 408.957031 408.871094 C 408.921875 408.933594 408.859375 408.996094 408.910156 409.09375 C 409.289062 409.804688 409.527344 410.550781 409.453125 411.371094 C 409.445312 411.457031 409.496094 411.480469 409.550781 411.527344 C 409.632812 411.59375 409.648438 411.667969 409.496094 411.652344 C 409.679688 411.832031 409.421875 412.074219 409.566406 412.242188 C 409.902344 412.625 410.082031 413.128906 410.554688 413.417969 C 410.796875 413.5625 410.972656 413.765625 411.234375 413.492188 C 411.332031 413.390625 411.414062 413.492188 411.5 413.5 C 411.8125 413.519531 412.15625 413.601562 412.203125 413.121094 C 412.207031 413.109375 412.25 413.105469 412.273438 413.097656 C 412.429688 413.15625 412.25 413.324219 412.273438 413.339844 C 412.722656 413.351562 413.011719 413.050781 413.402344 413.160156 C 413.5 413.1875 413.605469 413.171875 413.730469 413.042969 C 413.875 412.890625 413.933594 412.636719 414.148438 412.566406 C 414.324219 412.511719 414.378906 412.417969 414.40625 412.25 C 414.464844 411.886719 414.300781 411.5625 414.230469 411.226562 C 414.121094 410.710938 413.761719 410.253906 413.886719 409.683594 C 413.902344 409.601562 413.902344 409.519531 413.847656 409.445312 C 413.597656 409.121094 413.789062 408.59375 413.355469 408.34375 C 413.332031 408.332031 413.324219 408.265625 413.332031 408.230469 C 413.414062 407.742188 413.03125 407.390625 412.960938 406.945312 C 412.929688 406.757812 412.921875 406.472656 412.800781 406.402344 C 412.351562 406.136719 412.5625 405.617188 412.328125 405.25 C 412.179688 405.023438 412.082031 404.636719 411.964844 404.324219 C 411.871094 404.082031 411.902344 403.875 412.007812 403.652344 C 412.085938 403.492188 412.289062 403.628906 412.355469 403.492188 C 412.613281 402.953125 413.003906 402.515625 413.359375 402.042969 C 413.804688 401.449219 414.035156 400.695312 414.347656 400.003906 C 414.445312 399.796875 414.527344 399.59375 414.371094 399.351562 C 414.226562 399.125 414.382812 398.867188 414.449219 398.652344 C 414.503906 398.464844 414.660156 398.703125 414.777344 398.722656 C 414.957031 398.75 414.929688 398.621094 415 398.566406 C 415.261719 398.347656 415.070312 398.011719 415.25 397.746094 C 415.453125 397.453125 415.511719 397.0625 415.667969 396.730469 C 415.742188 396.574219 415.542969 396.398438 415.644531 396.351562 C 416.199219 396.089844 416.0625 395.484375 416.316406 395.082031 C 416.398438 394.957031 416.289062 394.867188 416.265625 394.84375 C 416.136719 394.746094 416.183594 394.917969 416.140625 394.945312 C 416.019531 395.019531 415.675781 394.851562 415.726562 394.761719 C 415.875 394.492188 415.882812 394.183594 415.992188 393.90625 C 416.085938 393.667969 416.597656 393.558594 416.230469 393.167969 C 416.222656 393.15625 416.269531 393.074219 416.28125 393.074219 C 416.480469 393.113281 416.410156 392.804688 416.640625 392.828125 C 416.59375 393.015625 416.550781 393.191406 416.503906 393.371094 C 416.46875 393.503906 416.535156 393.582031 416.652344 393.621094 C 416.726562 393.648438 416.816406 393.617188 416.785156 393.535156 C 416.65625 393.191406 416.894531 393.003906 417.089844 392.8125 C 417.421875 392.484375 417.238281 392 417.5 391.609375 C 417.691406 391.320312 417.800781 390.890625 417.90625 390.507812 C 418.066406 389.945312 418.492188 389.546875 418.808594 389.082031 C 419.40625 388.207031 419.714844 387.15625 420.433594 386.347656 C 420.703125 386.042969 420.914062 385.65625 421.382812 385.625 C 421.597656 385.609375 421.804688 385.792969 422.027344 385.636719 C 422.402344 385.382812 422.882812 385.46875 423.28125 385.222656 C 423.597656 385.03125 423.976562 384.902344 424.367188 384.851562 C 424.414062 384.84375 424.503906 384.847656 424.574219 384.816406 C 424.917969 384.667969 425.230469 384.484375 425.53125 384.265625 C 425.824219 384.050781 426.121094 383.90625 426.519531 383.90625 C 426.96875 383.902344 427.25 383.433594 427.667969 383.296875 C 427.855469 383.238281 427.996094 383.125 428.125 382.992188 C 428.328125 382.78125 428.503906 382.566406 428.804688 382.433594 C 428.945312 382.375 429.171875 382.308594 429.320312 382.132812 C 429.644531 381.753906 430.101562 381.527344 430.492188 381.21875 C 430.90625 380.894531 431.417969 380.691406 431.71875 380.234375 C 431.800781 380.109375 431.75 379.929688 431.929688 379.828125 C 432.339844 379.589844 432.648438 379.21875 432.976562 378.890625 C 433.367188 378.496094 433.785156 378.066406 433.980469 377.523438 C 434.117188 377.144531 434.402344 376.894531 434.648438 376.617188 C 434.714844 376.542969 434.925781 376.328125 435.015625 376.402344 C 435.269531 376.605469 435.582031 376.488281 435.835938 376.628906 C 436.242188 376.855469 436.765625 376.988281 437.140625 376.949219 C 437.914062 376.871094 438.605469 377.09375 439.328125 377.210938 C 439.96875 377.316406 440.597656 377.539062 441.238281 377.578125 C 442.253906 377.632812 443.246094 377.765625 444.203125 378.117188 C 444.386719 378.1875 444.542969 378.105469 444.671875 377.988281 C 444.800781 377.875 445.042969 377.722656 444.957031 377.578125 C 444.765625 377.253906 444.667969 376.882812 444.359375 376.605469 C 443.972656 376.257812 443.5625 375.980469 443.078125 375.828125 C 442.945312 375.785156 442.863281 375.683594 442.738281 375.632812 C 442.378906 375.488281 442.003906 375.53125 441.640625 375.421875 C 441.195312 375.289062 440.746094 375.054688 440.292969 375.066406 C 439.617188 375.082031 438.980469 374.789062 438.28125 374.929688 C 437.933594 375 437.507812 374.839844 437.125 374.71875 C 436.796875 374.617188 436.394531 374.566406 436.101562 374.742188 C 435.972656 374.820312 435.957031 374.886719 435.875 374.75 C 435.792969 374.617188 435.847656 374.558594 436.007812 374.496094 C 436.585938 374.261719 437.179688 373.527344 437.214844 373.027344 C 437.15625 373.066406 437.113281 373.097656 437.070312 373.121094 C 437.035156 373.140625 437.003906 373.21875 436.949219 373.136719 C 437.441406 372.496094 437.636719 371.773438 437.488281 370.984375 C 437.433594 370.6875 437.601562 370.683594 437.757812 370.683594 C 438.089844 370.6875 438.433594 370.628906 438.742188 370.578125 C 439.347656 370.476562 439.960938 370.417969 440.566406 370.308594 C 441.285156 370.179688 442.050781 370.285156 442.71875 369.894531 C 443.277344 369.566406 443.964844 369.484375 444.464844 369.070312 C 444.792969 368.800781 445.15625 368.585938 445.515625 368.40625 C 446.027344 368.15625 446.570312 367.957031 447.09375 367.726562 C 447.214844 367.675781 447.347656 367.59375 447.46875 367.605469 C 448.035156 367.652344 448.523438 367.367188 449.035156 367.222656 C 449.5625 367.074219 449.730469 366.621094 449.460938 366.296875 Z M 434.015625 359.875 C 433.824219 359.859375 433.609375 359.878906 433.59375 359.832031 C 433.472656 359.484375 433.394531 359.125 433.355469 358.746094 C 433.566406 359.105469 433.777344 359.464844 434.015625 359.875 Z M 433.46875 361.796875 C 433.625 362.210938 433.816406 362.609375 434.136719 362.910156 C 434.414062 363.175781 434.484375 363.496094 434.449219 363.835938 C 434.433594 363.972656 434.460938 364.109375 434.460938 364.269531 C 434.167969 364.089844 434.082031 363.800781 434.007812 363.550781 C 433.78125 362.800781 433.363281 362.132812 433.140625 361.386719 C 433.109375 361.277344 433.003906 361.324219 432.957031 361.292969 C 432.824219 361.199219 433.066406 361.246094 433.027344 361.167969 C 433.390625 361.21875 433.378906 361.5625 433.46875 361.796875 Z M 432.945312 360.65625 C 433.023438 360.839844 433.078125 360.976562 433.023438 361.160156 C 432.570312 360.601562 432.253906 359.984375 432.175781 359.261719 C 432.421875 359.734375 432.730469 360.164062 432.945312 360.65625 Z M 415.695312 346.121094 C 415.347656 345.859375 415.742188 345.4375 415.4375 345.132812 C 416 345.375 416.078125 345.75 415.695312 346.121094 Z M 415.769531 393.078125 C 415.667969 393.4375 415.535156 393.792969 415.402344 394.140625 C 415.371094 394.222656 415.308594 394.324219 415.1875 394.292969 C 415.058594 394.257812 415.09375 394.15625 415.09375 394.152344 C 415.175781 393.6875 415.214844 393.300781 415.542969 393.03125 C 415.578125 393.007812 415.601562 392.976562 415.628906 392.945312 C 415.722656 392.84375 415.605469 392.554688 415.78125 392.613281 C 415.941406 392.667969 415.8125 392.925781 415.769531 393.078125 Z M 416.652344 385.9375 C 416.492188 386.09375 416.238281 386.136719 416.171875 386.429688 C 416.082031 386.859375 415.6875 387.183594 415.789062 387.703125 C 415.832031 387.910156 415.625 388.175781 415.496094 388.332031 C 414.960938 388.992188 414.832031 389.808594 414.570312 390.566406 C 414.355469 391.179688 414.285156 391.832031 414.242188 392.496094 C 414.214844 392.882812 414.378906 393.324219 414.089844 393.683594 C 414.1875 393.726562 414.199219 393.667969 414.234375 393.625 C 414.347656 393.488281 414.386719 393.269531 414.617188 393.257812 C 414.636719 393.257812 414.683594 393.335938 414.675781 393.347656 C 414.53125 393.546875 414.664062 393.792969 414.484375 394.03125 C 414.28125 394.292969 414.082031 394.261719 413.878906 394.226562 C 413.539062 394.164062 413.578125 394.496094 413.519531 394.605469 C 413.289062 395.058594 413.191406 395.578125 413.078125 396.070312 C 412.96875 396.53125 412.628906 396.890625 412.597656 397.386719 C 412.59375 397.488281 412.574219 397.613281 412.578125 397.734375 C 412.582031 397.894531 412.671875 398.089844 412.429688 398.179688 C 412.382812 398.199219 412.433594 398.304688 412.523438 398.324219 C 412.625 398.347656 412.582031 398.425781 412.585938 398.476562 C 412.59375 398.625 412.585938 398.773438 412.585938 398.917969 C 412.351562 398.964844 412.472656 398.691406 412.265625 398.722656 C 412.140625 398.820312 412.097656 398.984375 412.066406 399.214844 C 412.023438 399.507812 412.09375 399.894531 411.738281 400.085938 C 411.714844 400.097656 411.691406 400.128906 411.691406 400.152344 C 411.753906 400.898438 410.988281 401.332031 410.976562 402.082031 C 410.972656 402.320312 410.617188 402.582031 410.382812 402.816406 C 409.910156 403.28125 409.324219 403.558594 408.824219 403.964844 C 408.089844 404.554688 407.542969 404.734375 406.382812 404.867188 C 405.863281 404.925781 405.347656 404.8125 404.992188 404.597656 C 404.601562 404.359375 404.199219 404.238281 403.792969 404.125 C 403.53125 404.054688 403.460938 403.820312 403.261719 403.699219 C 402.722656 403.375 402.09375 403.175781 401.648438 402.71875 C 401.335938 402.402344 401.109375 402.003906 400.769531 401.714844 C 400.332031 401.34375 400.109375 400.785156 399.621094 400.464844 C 399.464844 400.367188 399.445312 400.136719 399.414062 400.011719 C 399.347656 399.746094 399.191406 399.515625 399.140625 399.257812 C 399.09375 399.039062 398.917969 398.878906 398.992188 398.589844 C 399.097656 398.171875 398.71875 397.839844 398.566406 397.464844 C 398.457031 397.199219 398.386719 396.972656 398.503906 396.714844 C 398.539062 396.632812 398.578125 396.546875 398.523438 396.488281 C 398.042969 395.972656 398.164062 395.332031 398.136719 394.71875 C 398.125 394.488281 398.175781 394.238281 397.898438 394.097656 C 397.808594 394.050781 397.796875 393.910156 397.808594 393.792969 C 397.816406 393.675781 397.921875 393.546875 397.738281 393.457031 C 397.714844 393.441406 397.695312 393.21875 397.824219 393.175781 C 397.957031 393.132812 397.898438 393.367188 398.039062 393.355469 C 398.171875 393.292969 398.175781 393.132812 398.164062 393.035156 C 398.101562 392.28125 398.140625 391.53125 398.191406 390.78125 C 398.195312 390.695312 398.144531 390.601562 398.097656 390.519531 C 398 390.339844 398.039062 390.25 398.152344 390.050781 C 398.351562 389.707031 398.496094 389.300781 398.558594 388.882812 C 398.621094 388.429688 398.535156 387.933594 398.753906 387.523438 C 399.160156 386.761719 399.238281 385.90625 399.496094 385.101562 C 399.605469 384.765625 399.621094 384.402344 399.78125 384.066406 C 399.902344 383.820312 399.664062 383.507812 399.855469 383.21875 C 399.980469 383.285156 399.90625 383.429688 399.984375 383.511719 C 400 383.503906 400.019531 383.496094 400.023438 383.484375 C 400.117188 383.246094 400.195312 382.992188 400.257812 382.757812 C 400.398438 382.238281 401.109375 382.027344 400.953125 381.375 C 400.933594 381.285156 401.0625 381.269531 401.109375 381.214844 C 401.367188 380.929688 401.566406 380.621094 401.742188 380.257812 C 401.929688 379.863281 401.894531 379.378906 402.230469 379.054688 C 402.402344 378.886719 402.40625 378.621094 402.574219 378.433594 C 402.71875 378.273438 402.875 378.296875 402.964844 378.375 C 403.453125 378.800781 404.027344 379.113281 404.492188 379.578125 C 404.722656 379.8125 405.019531 380.007812 405.289062 380.21875 C 406.378906 381.078125 407.628906 381.683594 408.804688 382.414062 C 409.476562 382.828125 410.269531 383.039062 411 383.363281 C 411.242188 383.46875 411.5 383.53125 411.703125 383.75 C 411.90625 383.96875 412.25 383.851562 412.527344 383.941406 C 413.535156 384.265625 414.519531 384.667969 415.566406 384.886719 C 415.917969 384.960938 416.257812 385.113281 416.605469 385.21875 C 416.992188 385.335938 416.984375 385.617188 416.652344 385.9375 Z M 431.59375 378.433594 C 431.453125 378.632812 431.1875 378.683594 431.082031 378.925781 C 431.050781 378.90625 431.023438 378.886719 430.996094 378.867188 C 431.109375 378.65625 431.203125 378.433594 431.351562 378.25 C 431.378906 378.214844 431.496094 378.011719 431.628906 378.121094 C 431.75 378.21875 431.667969 378.332031 431.59375 378.433594 Z M 434.160156 369.601562 C 434.257812 369.773438 434.226562 369.964844 434.296875 370.136719 C 434.316406 370.183594 434.300781 370.246094 434.300781 370.300781 C 434.3125 370.539062 434.179688 370.738281 433.996094 370.816406 C 433.621094 370.972656 433.609375 371.320312 433.515625 371.613281 C 433.367188 372.09375 433.300781 372.605469 433.070312 373.058594 C 433.023438 373.148438 433.035156 373.230469 433.011719 373.3125 C 432.960938 373.519531 432.988281 373.6875 432.664062 373.789062 C 432.417969 373.863281 432.203125 374.230469 432.007812 374.488281 C 431.757812 374.820312 431.347656 375.082031 431.214844 375.410156 C 430.976562 376.015625 430.394531 376.257812 430.0625 376.753906 C 429.8125 377.132812 429.355469 377.386719 428.996094 377.703125 C 428.707031 377.953125 428.523438 378.324219 428.308594 378.652344 C 428.28125 378.695312 428.28125 378.820312 428.230469 378.808594 C 427.839844 378.707031 427.742188 379.15625 427.507812 379.207031 C 427.105469 379.296875 426.847656 379.570312 426.53125 379.761719 C 426.210938 379.953125 425.820312 380.015625 425.59375 380.398438 C 425.53125 380.496094 425.1875 380.636719 424.996094 380.679688 C 424.683594 380.753906 424.539062 380.957031 424.363281 381.148438 C 424.207031 381.320312 424.046875 381.480469 423.820312 381.515625 C 423.125 381.625 422.617188 382.054688 422.101562 382.476562 C 422.0625 382.511719 422.007812 382.546875 421.960938 382.550781 C 421.035156 382.625 420.234375 383.132812 419.339844 383.3125 C 419.25 383.328125 419.167969 383.40625 419.070312 383.382812 C 418.347656 383.199219 417.601562 383.316406 416.859375 383.207031 C 416.066406 383.09375 415.308594 382.875 414.546875 382.683594 C 413.921875 382.523438 413.253906 382.335938 412.71875 381.910156 C 412.378906 381.640625 411.933594 381.652344 411.578125 381.414062 C 411.144531 381.125 410.671875 380.902344 410.214844 380.648438 C 409.757812 380.394531 409.242188 380.203125 408.855469 379.867188 C 408.375 379.445312 407.800781 379.183594 407.289062 378.828125 C 406.699219 378.421875 406.070312 378.054688 405.488281 377.625 C 405.03125 377.289062 404.671875 376.8125 404.242188 376.46875 C 403.621094 375.976562 403.1875 375.339844 402.628906 374.8125 C 401.988281 374.199219 401.527344 373.453125 401.117188 372.683594 C 400.816406 372.117188 400.761719 371.441406 400.453125 370.867188 C 400.71875 370.386719 400.199219 369.835938 400.59375 369.371094 C 400.40625 369.050781 400.652344 368.6875 400.472656 368.351562 C 400.296875 368.035156 400.492188 367.675781 400.65625 367.464844 C 401.019531 366.996094 401.03125 366.425781 401.21875 365.917969 C 401.386719 365.464844 401.679688 365.078125 401.800781 364.609375 C 401.917969 364.175781 402.261719 363.863281 402.382812 363.410156 C 402.554688 362.769531 403.054688 362.285156 403.398438 361.71875 C 403.566406 361.4375 403.75 361.171875 403.816406 360.847656 C 403.878906 360.550781 404.148438 360.425781 404.316406 360.222656 C 404.410156 360.109375 404.511719 360.015625 404.558594 359.871094 C 404.59375 359.769531 404.589844 359.628906 404.792969 359.699219 C 405.027344 359.773438 404.914062 359.300781 405.199219 359.394531 C 405.054688 359.011719 405.453125 358.917969 405.609375 358.75 C 406.160156 358.144531 406.621094 357.445312 407.332031 357.003906 C 407.484375 356.910156 407.507812 356.726562 407.613281 356.597656 C 407.9375 356.183594 408.328125 355.875 408.734375 355.554688 C 409.023438 355.328125 409.417969 355.148438 409.582031 354.757812 C 409.621094 354.667969 409.714844 354.582031 409.84375 354.59375 C 410.160156 354.617188 410.265625 354.289062 410.5 354.167969 C 410.597656 354.117188 410.75 353.996094 410.863281 353.972656 C 411.234375 353.890625 411.550781 353.746094 411.8125 353.453125 C 411.945312 353.300781 412.214844 353.390625 412.363281 353.234375 C 412.914062 352.671875 413.703125 352.628906 414.375 352.335938 C 414.707031 352.191406 414.984375 351.9375 415.347656 351.863281 C 415.410156 351.851562 415.46875 351.777344 415.527344 351.78125 C 416.261719 351.847656 416.894531 351.363281 417.652344 351.40625 C 418.066406 351.429688 418.519531 351.394531 418.953125 351.363281 C 419.242188 351.339844 419.382812 351.574219 419.621094 351.605469 C 420.636719 351.753906 421.527344 352.253906 422.46875 352.609375 C 423.296875 352.921875 424.0625 353.378906 424.828125 353.824219 C 425.132812 354 425.417969 354.195312 425.707031 354.386719 C 426.378906 354.832031 426.988281 355.34375 427.511719 355.957031 C 427.617188 356.078125 427.722656 356.171875 427.871094 356.230469 C 428.335938 356.410156 428.398438 356.917969 428.679688 357.253906 C 429.238281 357.921875 429.816406 358.570312 430.460938 359.15625 C 430.511719 359.203125 430.636719 359.289062 430.511719 359.324219 C 430.222656 359.410156 430.40625 359.53125 430.496094 359.566406 C 431.007812 359.78125 431.113281 360.253906 431.246094 360.710938 C 431.300781 360.890625 431.488281 360.945312 431.59375 361.097656 C 431.902344 361.558594 432.363281 361.917969 432.183594 362.582031 C 432.15625 362.675781 432.292969 362.832031 432.378906 362.9375 C 432.511719 363.097656 432.722656 363.210938 432.601562 363.472656 C 433.011719 363.507812 432.683594 363.933594 432.953125 364.125 C 433.132812 364.253906 433.140625 364.679688 433.15625 364.972656 C 433.179688 365.398438 433.335938 365.800781 433.539062 366.113281 C 433.664062 366.308594 433.5 366.523438 433.699219 366.632812 C 433.511719 366.777344 433.710938 366.832031 433.765625 366.917969 C 434.101562 367.457031 434.574219 367.929688 434.550781 368.640625 C 434.542969 368.878906 434.484375 369.046875 434.171875 369.339844 C 434.125 369.382812 434.125 369.535156 434.160156 369.601562 Z M 434.683594 364.742188 C 434.578125 364.851562 434.703125 365.019531 434.550781 365.140625 C 434.394531 365.015625 434.285156 364.894531 434.359375 364.6875 C 434.378906 364.625 434.28125 364.554688 434.382812 364.484375 C 434.511719 364.394531 434.515625 364.609375 434.648438 364.566406 C 434.746094 364.539062 434.726562 364.699219 434.683594 364.742188 Z M 423.191406 377.105469 C 423.101562 377.25 423.222656 377.402344 423.148438 377.582031 C 422.871094 378.238281 422.429688 378.734375 421.863281 379.136719 C 421.734375 379.230469 421.574219 379.28125 421.425781 379.351562 C 421.035156 379.542969 420.601562 379.5625 420.191406 379.78125 C 419.734375 380.023438 419.128906 380.023438 418.582031 380.070312 C 418.214844 380.105469 417.882812 380.273438 417.515625 380.300781 C 417.300781 380.316406 417.097656 380.296875 416.878906 380.253906 C 416.078125 380.097656 415.378906 379.675781 414.632812 379.390625 C 413.984375 379.144531 413.253906 378.828125 413.070312 377.980469 C 413.035156 377.824219 412.824219 377.820312 412.691406 377.671875 C 412.671875 377.8125 412.660156 377.90625 412.648438 377.972656 C 412.191406 377.675781 411.84375 377.25 411.4375 376.894531 C 410.964844 376.484375 410.296875 376.296875 409.976562 375.691406 C 409.859375 375.472656 409.636719 375.300781 409.324219 375.332031 C 409.144531 375.347656 409.128906 375.078125 408.96875 375.035156 C 408.542969 374.917969 408.300781 374.597656 408.058594 374.257812 C 407.917969 374.066406 407.714844 373.941406 407.503906 373.804688 C 407.167969 373.582031 406.941406 373.203125 406.703125 372.851562 C 406.355469 372.332031 406.269531 371.707031 405.878906 371.195312 C 405.523438 370.730469 405.488281 370.066406 405.332031 369.484375 C 405.308594 369.394531 405.378906 369.277344 405.414062 369.175781 C 405.839844 367.941406 406.746094 367.144531 407.835938 366.515625 C 408.289062 366.253906 408.710938 365.933594 409.183594 365.695312 C 409.402344 365.589844 409.652344 365.503906 409.847656 365.476562 C 410.085938 365.441406 410.0625 365.730469 409.972656 365.949219 C 410.035156 365.882812 410.117188 365.824219 410.15625 365.746094 C 410.226562 365.617188 410.3125 365.496094 410.453125 365.585938 C 410.585938 365.667969 410.566406 365.914062 410.496094 365.953125 C 410.023438 366.234375 410.058594 366.832031 409.707031 367.167969 C 409.3125 367.542969 409.316406 368.042969 409.230469 368.523438 C 409.21875 368.582031 409.222656 368.625 409.257812 368.671875 C 409.523438 369.019531 409.550781 369.457031 409.683594 369.851562 C 409.726562 369.980469 409.773438 370.050781 409.875 370.125 C 410.066406 370.261719 410.058594 370.515625 410.085938 370.695312 C 410.15625 371.140625 410.296875 371.425781 410.722656 371.683594 C 411.167969 371.953125 411.613281 372.292969 411.878906 372.816406 C 411.984375 373.027344 412.28125 373.183594 412.523438 373.277344 C 413.097656 373.496094 413.5 373.921875 413.914062 374.335938 C 414.097656 374.523438 414.285156 374.65625 414.546875 374.742188 C 414.941406 374.871094 415.28125 375.109375 415.519531 375.496094 C 415.652344 375.710938 415.902344 375.871094 416.167969 375.9375 C 416.238281 375.957031 416.328125 375.964844 416.339844 376.023438 C 416.421875 376.453125 416.847656 376.488281 417.109375 376.710938 C 417.304688 376.878906 417.589844 376.960938 417.605469 377.285156 C 417.609375 377.332031 417.644531 377.398438 417.683594 377.421875 C 418.25 377.722656 418.734375 378.171875 419.371094 378.34375 C 420.152344 378.554688 420.617188 378.414062 421.085938 377.777344 C 421.292969 377.5 421.523438 377.234375 421.808594 377.066406 C 422.03125 376.933594 422.324219 376.890625 422.59375 376.835938 C 422.933594 376.765625 422.914062 377.230469 423.191406 377.105469 Z M 408.328125 360.726562 C 408.386719 360.441406 408.632812 360.226562 408.679688 359.925781 C 408.824219 359.957031 408.769531 359.839844 408.789062 359.777344 C 408.882812 359.449219 409.035156 359.21875 409.367188 359.019531 C 409.613281 358.867188 409.90625 358.671875 410.144531 358.601562 C 410.640625 358.453125 411.136719 358.230469 411.691406 358.277344 C 412.058594 358.304688 412.421875 358.296875 412.773438 358.441406 C 412.867188 358.476562 412.972656 358.503906 413.085938 358.449219 C 413.410156 358.300781 413.476562 358.410156 413.355469 358.722656 C 413.328125 358.792969 413.375 358.894531 413.390625 358.980469 C 413.457031 358.953125 413.550781 358.996094 413.582031 358.875 C 413.605469 358.785156 413.742188 358.847656 413.738281 358.859375 C 413.71875 359.101562 414.085938 359.164062 414.039062 359.453125 C 414.09375 359.382812 414.148438 359.3125 414.210938 359.234375 C 414.285156 359.355469 414.25 359.492188 414.195312 359.515625 C 413.953125 359.625 413.976562 359.859375 413.953125 360.035156 C 413.878906 360.589844 413.417969 360.921875 413.226562 361.398438 C 413.089844 361.75 412.746094 361.847656 412.503906 362.0625 C 412.042969 362.472656 411.546875 362.0625 411.066406 362.082031 C 410.742188 362.09375 410.398438 362.015625 410.058594 361.984375 C 409.523438 361.933594 409.011719 361.699219 408.648438 361.261719 C 408.519531 361.105469 408.28125 360.964844 408.328125 360.726562 Z M 430.917969 369.054688 C 430.832031 369.269531 430.785156 369.488281 430.734375 369.714844 C 430.574219 370.429688 430.195312 371 429.476562 371.28125 C 429.40625 371.308594 429.296875 371.328125 429.242188 371.289062 C 428.992188 371.121094 428.757812 371.011719 428.507812 371.285156 C 428.496094 371.296875 428.4375 371.300781 428.433594 371.289062 C 428.199219 370.910156 427.976562 371.242188 427.753906 371.304688 C 427.554688 371.359375 427.351562 371.480469 427.195312 371.230469 C 426.925781 371.523438 426.640625 371.222656 426.363281 371.246094 C 426.023438 371.269531 425.683594 371.226562 425.449219 370.921875 C 425.488281 370.816406 425.609375 370.832031 425.695312 370.75 C 425.527344 370.699219 425.332031 370.71875 425.238281 370.511719 C 425.539062 370.402344 425.527344 370.09375 425.636719 369.859375 C 425.886719 369.324219 426.242188 368.921875 426.761719 368.605469 C 427.253906 368.308594 427.816406 368.199219 428.308594 367.921875 C 428.402344 367.871094 428.546875 367.910156 428.667969 367.910156 C 428.734375 367.910156 428.824219 367.953125 428.863281 367.921875 C 429.546875 367.402344 430.105469 368.027344 430.714844 368.140625 C 430.945312 368.183594 431.039062 368.742188 430.917969 369.054688 Z M 415.164062 370.996094 C 415.074219 370.875 414.984375 370.636719 415.082031 370.582031 C 415.402344 370.410156 415.425781 370.054688 415.625 369.8125 C 415.914062 369.453125 416.34375 369.304688 416.726562 369.152344 C 417.070312 369.011719 417.246094 368.625 417.667969 368.625 C 418.003906 368.625 418.335938 368.511719 418.6875 368.445312 C 418.695312 368.617188 419.128906 368.304688 418.984375 368.699219 C 419.140625 368.75 419.292969 368.742188 419.457031 368.695312 C 419.71875 368.617188 419.960938 368.664062 420.007812 368.980469 C 420.035156 369.164062 420.175781 369.121094 420.234375 369.109375 C 420.617188 369.023438 420.625 369.238281 420.625 369.527344 C 420.625 369.925781 420.433594 370.25 420.175781 370.484375 C 419.824219 370.804688 419.585938 371.300781 419.03125 371.339844 C 418.695312 371.363281 418.273438 371.519531 418.042969 371.429688 C 417.347656 371.160156 416.621094 371.605469 415.960938 371.238281 C 415.921875 371.214844 415.835938 371.273438 415.773438 371.285156 C 415.652344 371.308594 415.535156 371.351562 415.632812 371.132812 C 415.6875 371.007812 415.515625 371.027344 415.441406 370.988281 C 415.355469 371.203125 415.234375 371.09375 415.164062 370.996094 Z M 415.164062 370.996094 " fill-opacity="1" fill-rule="nonzero"/></g></svg>