<svg xmlns="http://www.w3.org/2000/svg" viewBox="0 0 322.14 384.91"><defs><style>.cls-1{isolation:isolate;}.cls-10,.cls-11,.cls-12,.cls-13,.cls-14,.cls-15,.cls-16,.cls-17,.cls-18,.cls-2,.cls-3,.cls-4,.cls-5,.cls-6,.cls-7,.cls-8,.cls-9{fill:#fff;}.cls-2{opacity:0.93;}.cls-10,.cls-11,.cls-12,.cls-13,.cls-14,.cls-15,.cls-16,.cls-17,.cls-2,.cls-3,.cls-4,.cls-5,.cls-6,.cls-7,.cls-8,.cls-9{mix-blend-mode:screen;}.cls-3{opacity:0.32;}.cls-4{opacity:0.74;}.cls-5{opacity:0.54;}.cls-6{opacity:0.35;}.cls-7{opacity:0.37;}.cls-8{opacity:0.38;}.cls-9{opacity:0.59;}.cls-10{opacity:0.65;}.cls-11{opacity:0.38;}.cls-12{opacity:1;}.cls-13{opacity:0.66;}.cls-14{opacity:0.68;}.cls-15{opacity:0.5;}.cls-16{opacity:0.7;}.cls-17{opacity:0.86;}</style></defs><title>petal</title><g class="cls-1"><g id="Layer_1" data-name="Layer 1"><polygon class="cls-2" points="170.53 165 196.5 339.45 190.04 340.38 164.07 165.93 170.53 165"/><path class="cls-3" d="M505.12,434.05,498,435.69l-8.23,1.89c-3.16.81-6.87,1.09-10.85,1.74a117.92,117.92,0,0,1-12.93,1.47c-4.61.18-9.46.83-14.5.67s-10.26.1-15.52-.45-10.66-.7-15.95-1.69c-5.33-.77-10.64-1.63-15.78-2.89-5.21-1-10.2-2.52-15.05-3.89a207.08,207.08,0,0,1-25.84-9.61,154.47,154.47,0,0,1-23.76-12.86,1.62,1.62,0,1,1,1.87-2.65l0,0s2.09,1.51,6.07,3.89a174.74,174.74,0,0,0,17,8.91A204.46,204.46,0,0,0,389.91,430c4.78,1.41,9.7,2.95,14.83,4,5.08,1.3,10.32,2.21,15.57,3,5.23,1,10.56,1.27,15.76,1.85s10.38.38,15.36.61,9.8-.38,14.37-.52a114.65,114.65,0,0,0,12.81-1.31c3.94-.6,7.59-.83,10.77-1.61l8.24-1.79,7.19-1.57a.7.7,0,0,1,.84.54A.71.71,0,0,1,505.12,434.05Z" transform="translate(-338.86 -266)"/><path class="cls-4" d="M377.31,347.77s7.07,6.49,18.35,15.52c2.76,2.32,5.9,4.65,9.18,7.18s6.7,5.23,10.35,7.88c7.43,5.13,15,11.07,23.2,16.19l12,7.85c3.92,2.68,8,4.92,11.9,7.23l11.23,6.57c3.54,2.16,7,4,10.23,5.6l21.47,10.93,0,0a.7.7,0,0,1,.31.95.72.72,0,0,1-.95.31L483,423.29c-3.29-1.54-6.76-3.37-10.33-5.49l-11.36-6.47c-3.92-2.26-8.06-4.47-12-7.11l-12.18-7.74c-8.26-5-16-10.91-23.48-16-3.7-2.62-7.16-5.32-10.5-7.79s-6.51-4.81-9.31-7.11c-11.43-8.94-18.67-15.42-18.67-15.42a1.62,1.62,0,0,1-.16-2.29,1.64,1.64,0,0,1,2.29-.15Z" transform="translate(-338.86 -266)"/><path class="cls-5" d="M427.59,331.91a199.07,199.07,0,0,0,8.91,17.93c1.35,2.69,3.1,5.45,4.87,8.42s3.58,6.12,5.65,9.27l6.56,9.58a102.64,102.64,0,0,0,7.1,9.65l7.45,9.41a108.5,108.5,0,0,0,7.71,8.68l7.44,7.93,3.46,3.65q1.83,1.62,3.54,3.1L505.4,432.8l.05.05a.71.71,0,0,1-.92,1.07l-15.41-13.13-3.6-3.08L482,414.08l-7.6-7.88a107.81,107.81,0,0,1-7.89-8.64l-7.65-9.37a106.43,106.43,0,0,1-7.3-9.63L444.79,369c-2.14-3.14-4-6.33-5.83-9.27s-3.64-5.73-5-8.44c-3-5.31-5.39-9.77-6.9-13s-2.39-5-2.39-5l0-.06a1.63,1.63,0,0,1,.88-2.12A1.61,1.61,0,0,1,427.59,331.91Z" transform="translate(-338.86 -266)"/><path class="cls-6" d="M458.67,323.44s.27,1.89,1,5.08,1.68,7.79,3.12,13.26c1.24,5.52,3.45,11.75,5.41,18.53l3.73,10.24c1.35,3.46,2.43,7.09,4.1,10.47s3.1,6.87,4.62,10.26c.77,1.69,1.52,3.37,2.27,5l2.62,4.7c3.59,6.08,6.4,12.11,9.75,16.66l11,15.32.05.08a.69.69,0,0,1-.16,1,.7.7,0,0,1-1-.15l-11.3-15.29c-3.46-4.55-6.38-10.57-10.09-16.65l-2.72-4.7-2.36-5-4.82-10.27c-1.74-3.39-2.88-7-4.29-10.5s-2.64-6.94-3.92-10.27c-2.09-6.82-4.4-13.07-5.75-18.63-1.53-5.49-2.68-10.12-3.36-13.4s-1.07-5.12-1.07-5.12l0-.09a1.62,1.62,0,0,1,3.2-.52A0,0,0,0,0,458.67,323.44Z" transform="translate(-338.86 -266)"/><path class="cls-7" d="M504.25,433.36s-.05-1.83-.16-5c0-1.6-.11-3.55-.18-5.78s-.43-4.72-.66-7.45c-1-10.87-3-25.43-5.35-39.89-4.58-29-10.19-57.74-10.19-57.74a1.62,1.62,0,0,1,3.18-.63v0s5.18,28.91,9.31,58c2.11,14.54,3.9,29.1,4.75,40.16.19,2.76.58,5.28.55,7.51s.06,4.18.09,5.79c.05,3.21.08,5,.08,5a.71.71,0,0,1-.7.72A.73.73,0,0,1,504.25,433.36Z" transform="translate(-338.86 -266)"/><path class="cls-8" d="M520.13,267.41S526,309.53,524.72,352c-.26,5.3-.29,10.6-.83,15.8s-.8,10.33-1.59,15.25q-.51,3.7-1,7.27c-.48,2.34-1,4.64-1.41,6.88s-.88,4.42-1.41,6.5-1.23,4.05-1.81,6-1.1,3.76-1.72,5.47-1.44,3.25-2.11,4.73c-1.31,3-2.38,5.61-3.85,7.48l-4.08,6.14a.71.71,0,0,1-1.18-.78l.08-.12,3.91-6c1.4-1.82,2.42-4.42,3.68-7.35l2-4.66c.59-1.69,1.06-3.52,1.63-5.4s1.13-3.85,1.73-5.89.86-4.23,1.32-6.45.87-4.49,1.32-6.81.6-4.77.91-7.21c.73-4.88,1.06-10,1.42-15.15s.45-10.44.66-15.7c.2-10.54,0-21.09-.5-31s-1.17-19.08-1.94-27c-1.47-15.77-3-26.17-3-26.17a1.62,1.62,0,0,1,3.21-.48Z" transform="translate(-338.86 -266)"/><path class="cls-9" d="M575,300.06s-2,9.41-6.35,23c-2.16,6.82-4.89,14.72-8.15,23s-7.08,17.08-11.3,25.64c-2.23,4.22-4.21,8.57-6.63,12.6s-4.53,8.14-7,11.86-4.67,7.46-7.17,10.72-4.54,6.57-6.93,9.24l-6.25,7.51c-1.94,2.17-3.77,3.94-5.2,5.45l-4.58,4.71a.71.71,0,0,1-1-1l0,0,4.48-4.73c1.4-1.52,3.19-3.28,5.09-5.45s3.86-4.77,6.1-7.52,4.35-6,6.77-9.24,4.62-7,7-10.72,4.55-7.78,6.83-11.85,4.26-8.37,6.43-12.58c4.08-8.54,7.78-17.26,10.9-25.57s5.76-16.17,7.82-23c4.15-13.6,6-22.83,6-22.83a1.62,1.62,0,1,1,3.17.64Z" transform="translate(-338.86 -266)"/><path class="cls-10" d="M614.61,328.11s-5.37,8-14.19,19.37a470.67,470.67,0,0,1-34.62,39.78c-6.75,6.81-13.75,13.38-20.59,19.22-3.49,2.83-6.76,5.7-10.07,8.17l-9.38,6.85-8.26,5.31c-2.42,1.65-4.77,2.67-6.59,3.72l-5.8,3.13a.33.33,0,0,1-.45-.13.36.36,0,0,1,.15-.47l5.72-3.21c1.79-1.08,4.11-2.13,6.49-3.81l8.13-5.42,9.21-7c3.24-2.51,6.45-5.42,9.88-8.29,6.7-5.92,13.56-12.57,20.16-19.46a467.79,467.79,0,0,0,33.76-40.14c8.59-11.47,13.75-19.45,13.75-19.45a1.62,1.62,0,0,1,2.72,1.76Z" transform="translate(-338.86 -266)"/><path class="cls-11" d="M621,363.45s-1.41,1.57-4.16,4.17-6.7,6.23-11.55,10.45c-2.36,2.18-5.21,4.18-8.07,6.5s-5.84,4.8-9.2,7l-10.17,7a126.61,126.61,0,0,1-10.8,6.78l-11,6.49c-3.6,2.18-7.46,3.74-11,5.57l-10.39,5.06a77.22,77.22,0,0,1-9.53,4l-20,7.54a.71.71,0,0,1-.51-1.32l.07,0,19.77-7.77a78.11,78.11,0,0,0,9.42-4.1l10.25-5.15c3.51-1.87,7.33-3.46,10.86-5.69l10.82-6.58a121.44,121.44,0,0,0,10.63-6.87l10-7.1c3.31-2.22,6.14-4.83,9-7.06s5.6-4.36,7.91-6.55c4.73-4.23,8.67-7.77,11.21-10.41s4.06-4.17,4.06-4.17a1.62,1.62,0,1,1,2.43,2.13h0Z" transform="translate(-338.86 -266)"/><path class="cls-12" d="M504.36,432.31l2,0a45.73,45.73,0,0,0,5.59-.45,146.73,146.73,0,0,0,19.75-4.05c4.06-1,8.36-2.42,12.95-3.8,4.51-1.63,9.34-3.12,14.16-5.15,4.89-1.88,9.85-4,14.82-6.34,5.05-2.16,9.9-4.93,14.9-7.39,4.83-2.79,9.75-5.41,14.37-8.37s9.24-5.75,13.39-8.94,8.37-5.94,12-9.07,7.3-5.78,10.27-8.73,5.84-5.46,8.32-7.77l6-6.38,5.22-5.58.08-.08a1.62,1.62,0,1,1,2.36,2.21v0s-1.95,2-5.35,5.6L649,364.4c-2.53,2.32-5.4,4.93-8.51,7.79s-6.75,5.63-10.48,8.71-7.92,6-12.21,9.06-9,5.89-13.61,8.89-9.7,5.53-14.58,8.3c-5.07,2.43-10,5.17-15.1,7.29-5,2.3-10,4.4-15,6.24-4.88,2-9.77,3.45-14.33,5-4.63,1.35-9,2.75-13.09,3.7a149.49,149.49,0,0,1-20,3.89,46.87,46.87,0,0,1-5.74.39l-2,0a.69.69,0,0,1-.71-.7A.72.72,0,0,1,504.36,432.31Z" transform="translate(-338.86 -266)"/><path class="cls-13" d="M504.84,435l-19.68-1.62-9.53-.78c-3.38-.53-6.92-1.34-10.58-2.05l-11.29-2.27c-3.9-.57-7.61-2.08-11.4-3.27l-11.26-3.72c-3.67-1.34-7.07-3.22-10.47-4.73s-6.73-2.94-9.54-4.92l-8.17-5.1c-2.47-1.67-4.53-3.51-6.46-5a38.52,38.52,0,0,1-4.72-4.15,37.39,37.39,0,0,1-3.81-4,.7.7,0,0,1,.12-1,.72.72,0,0,1,1,.12,36,36,0,0,0,3.73,3.8,38.4,38.4,0,0,0,4.69,4c1.92,1.41,4,3.19,6.41,4.79L412,410c2.79,1.91,6.16,3.14,9.48,4.71s6.74,3.25,10.38,4.52l11.18,3.51c3.75,1.12,7.43,2.57,11.27,3.07l11.12,2.07c3.61.64,7.07,1.39,10.4,1.87l9.54.65,19.7,1.33a1.62,1.62,0,0,1-.21,3.24Z" transform="translate(-338.86 -266)"/><path class="cls-14" d="M371.13,446.74A159,159,0,0,0,392.07,450c6.36.67,13.81,1.07,21.8,1.11a228.65,228.65,0,0,0,25-1.27c4.25-.31,8.46-1.07,12.62-1.65s8.18-1.55,12.11-2.27,7.63-1.9,11.2-2.75,6.86-1.95,9.9-3c6.14-1.86,11.08-3.88,14.54-5.29l5.45-2.18h0a.66.66,0,0,1,.86.37.67.67,0,0,1-.36.86s-2,.81-5.46,2.25-8.42,3.56-14.57,5.51c-3.05,1.06-6.35,2.21-9.94,3.11S468,447,464,447.75s-8,1.87-12.19,2.44-8.42,1.45-12.71,1.82a227.28,227.28,0,0,1-25.24,1.59c-8.07.07-15.61-.25-22.05-.84a161.68,161.68,0,0,1-21.39-3.07,1.52,1.52,0,0,1,.66-3Z" transform="translate(-338.86 -266)"/><path class="cls-15" d="M400.74,466s7,.24,17.61-.32c5.29-.25,11.44-.79,18-1.56a196.68,196.68,0,0,0,20.38-3.64,103,103,0,0,0,10.14-2.77,88,88,0,0,0,9.54-3.47c3.13-1.09,5.83-2.8,8.54-4.12s4.88-3.21,7.11-4.61,3.72-3.34,5.35-4.72a18.65,18.65,0,0,0,3.56-4.16l2.79-3.9.09-.11a.65.65,0,0,1,.91-.15.67.67,0,0,1,.16.91l-2.83,4.08a19.34,19.34,0,0,1-3.62,4.36c-1.64,1.44-3.17,3.49-5.45,5s-4.45,3.48-7.22,4.84a77.54,77.54,0,0,1-8.65,4.34,86.57,86.57,0,0,1-9.66,3.67,103.77,103.77,0,0,1-10.24,3,201.75,201.75,0,0,1-20.58,4c-6.63.87-12.84,1.51-18.18,1.85-10.65.72-17.84.58-17.84.58a1.51,1.51,0,1,1,0-3Z" transform="translate(-338.86 -266)"/><path class="cls-16" d="M637.78,397.88A208,208,0,0,1,619,409.6c-5.82,3.17-12.63,6.85-20.22,10.15a236.41,236.41,0,0,1-24.21,9.31c-4.27,1.14-8.48,2.52-12.73,3.45s-8.4,2-12.54,2.41-8.06,1.3-11.87,1.3-7.38.54-10.69.29l-9-.49c-2.68-.24-5-.79-6.9-1.06l-6-1a.59.59,0,0,1-.49-.69.6.6,0,0,1,.68-.49h.07l5.94.92c1.89.25,4.16.76,6.82,1l8.92.37c3.27.21,6.82-.29,10.57-.42s7.64-.93,11.7-1.43,8.15-1.71,12.36-2.55,8.34-2.4,12.54-3.58a232.12,232.12,0,0,0,23.84-9.51c7.47-3.37,14.17-7.1,19.88-10.31A207.42,207.42,0,0,0,636,395.44a1.51,1.51,0,1,1,1.81,2.42Z" transform="translate(-338.86 -266)"/><path class="cls-17" d="M612.23,429.74s-26.15,10.45-54,14c-3.48.38-6.94.89-10.4,1a80,80,0,0,1-10.13.14,62.09,62.09,0,0,1-9.45-.83,48.36,48.36,0,0,1-8.31-1.84c-2.61-.51-4.75-1.78-6.72-2.63l-2.74-1.28-2.06-1.54-3.9-2.93a.66.66,0,0,1-.13-.92.66.66,0,0,1,.91-.14l.12.09,3.79,2.75,2,1.45,2.66,1.19c1.92.78,4,2,6.53,2.44a46.1,46.1,0,0,0,8.11,1.66,59.77,59.77,0,0,0,9.26.67,77.6,77.6,0,0,0,9.94-.29c3.4-.13,6.81-.69,10.24-1.12a227.36,227.36,0,0,0,36.92-8.87c9.9-3.19,16.25-5.82,16.25-5.82a1.51,1.51,0,1,1,1.16,2.79Z" transform="translate(-338.86 -266)"/><path class="cls-18" d="M528.68,572c7.32-.49,14.45,16.78,15.92,38.58S541.32,650.41,534,650.9s-14.46-16.78-15.93-38.58S521.35,572.44,528.68,572Z" transform="translate(-338.86 -266)"/></g></g></svg>