<?xml version="1.0" encoding="UTF-8"?><svg xmlns="http://www.w3.org/2000/svg" xmlns:xlink="http://www.w3.org/1999/xlink" width="810" zoomAndPan="magnify" viewBox="0 0 810 809.999993" height="809.999993" preserveAspectRatio="xMidYMid meet" version="1.0"><defs><clipPath id="clip-0"><path d="M 240.199219 260.378906 L 553.644531 260.378906 L 553.644531 584.378906 L 240.199219 584.378906 Z M 240.199219 260.378906 " clip-rule="nonzero"/></clipPath></defs><g clip-path="url(#clip-0)"><path fill="rgb(79.998779%, 73.329163%, 49.01886%)" d="M 278.933594 265.742188 C 264.929688 265.742188 252.96875 276.40625 251.457031 290.460938 C 245.253906 347.960938 235.054688 485.714844 274.085938 522.972656 C 302.398438 549.992188 482.269531 582.855469 531.566406 578.722656 C 540.472656 577.976562 542.132812 576.308594 542.382812 575.980469 C 561.507812 550.363281 529.132812 405.21875 524.078125 386.578125 C 509.746094 338.242188 479.535156 305.933594 431.714844 287.855469 C 387.746094 271.222656 332.660156 267.820312 280.011719 265.761719 C 279.652344 265.75 279.292969 265.742188 278.933594 265.742188 Z M 521.273438 584.445312 C 458.628906 584.453125 298.089844 553.285156 270.390625 526.84375 C 229.632812 487.941406 239.84375 348.179688 246.128906 289.890625 C 247.980469 272.6875 262.921875 259.753906 280.222656 260.40625 C 397.597656 265.003906 497.347656 277.554688 529.222656 385.085938 C 529.683594 386.632812 569.308594 548.871094 546.671875 579.1875 C 544.691406 581.839844 540.035156 583.386719 532.019531 584.054688 C 528.875 584.320312 525.269531 584.445312 521.273438 584.445312 " fill-opacity="1" fill-rule="nonzero"/></g><path fill="rgb(79.998779%, 73.329163%, 49.01886%)" d="M 295.167969 286.402344 C 284.007812 286.402344 274.476562 294.910156 273.269531 306.117188 C 268.324219 351.949219 260.199219 461.761719 291.3125 491.460938 C 312.574219 511.753906 441.074219 536.1875 488.746094 536.1875 C 491.675781 536.1875 494.292969 536.09375 496.566406 535.90625 C 503.664062 535.308594 504.988281 533.984375 505.183594 533.71875 C 520.449219 513.273438 494.625 397.582031 490.597656 382.730469 C 466 299.75 387.925781 290.023438 296.03125 286.425781 C 295.746094 286.410156 295.460938 286.402344 295.167969 286.402344 Z M 488.363281 540.46875 C 438.417969 540.46875 310.441406 515.621094 288.359375 494.550781 C 255.875 463.535156 264.015625 352.117188 269.023438 305.65625 C 270.5 291.941406 282.378906 281.605469 296.199219 282.15625 C 389.769531 285.816406 469.289062 295.824219 494.695312 381.542969 C 495.066406 382.777344 526.335938 512.535156 508.609375 536.277344 C 507.03125 538.390625 503.316406 539.625 496.929688 540.160156 C 494.425781 540.371094 491.542969 540.46875 488.363281 540.46875 " fill-opacity="1" fill-rule="nonzero"/><path fill="rgb(79.998779%, 73.329163%, 49.01886%)" d="M 308.535156 308.285156 C 299.890625 308.285156 292.496094 314.875 291.5625 323.5625 C 287.734375 359.078125 281.4375 444.183594 305.542969 467.195312 C 323.042969 483.886719 434.171875 504.179688 464.609375 501.632812 C 470.105469 501.175781 471.140625 500.140625 471.292969 499.941406 C 483.097656 484.117188 463.105469 394.453125 459.980469 382.933594 C 440.921875 318.625 380.421875 311.089844 309.207031 308.300781 C 308.984375 308.292969 308.757812 308.285156 308.535156 308.285156 Z M 458.25 505.171875 C 419.546875 505.175781 320.371094 485.925781 303.265625 469.585938 C 278.089844 445.558594 284.394531 359.210938 288.269531 323.207031 C 289.421875 312.574219 298.71875 304.570312 309.332031 304.992188 C 381.84375 307.832031 443.464844 315.585938 463.160156 382.011719 C 463.445312 382.972656 487.917969 483.203125 473.941406 501.921875 C 472.714844 503.558594 469.839844 504.515625 464.890625 504.933594 C 462.953125 505.09375 460.71875 505.171875 458.25 505.171875 " fill-opacity="1" fill-rule="nonzero"/><path fill="rgb(79.998779%, 73.329163%, 49.01886%)" d="M 319.214844 322.609375 C 313.257812 322.609375 308.171875 327.140625 307.53125 333.117188 C 304.894531 357.570312 300.550781 416.144531 317.148438 431.988281 C 329.191406 443.480469 405.660156 457.460938 426.636719 455.6875 C 430.425781 455.375 431.128906 454.664062 431.242188 454.53125 C 439.332031 443.6875 425.300781 380.785156 423.453125 373.992188 C 410.332031 329.726562 368.691406 324.53125 319.671875 322.613281 C 319.519531 322.609375 319.367188 322.609375 319.214844 322.609375 Z M 422.265625 458.121094 C 395.625 458.128906 327.359375 444.875 315.578125 433.632812 C 298.25 417.09375 302.59375 357.660156 305.265625 332.871094 C 306.054688 325.558594 312.460938 320.0625 319.757812 320.339844 C 369.675781 322.292969 412.089844 327.628906 425.640625 373.359375 C 425.835938 374.011719 442.566406 443.164062 433.0625 455.890625 C 432.222656 457.015625 430.238281 457.675781 426.832031 457.960938 C 425.496094 458.074219 423.960938 458.121094 422.265625 458.121094 " fill-opacity="1" fill-rule="nonzero"/></svg>