<?xml version="1.0" encoding="UTF-8"?><svg xmlns="http://www.w3.org/2000/svg" xmlns:xlink="http://www.w3.org/1999/xlink" width="810" zoomAndPan="magnify" viewBox="0 0 810 809.999993" height="809.999993" preserveAspectRatio="xMidYMid meet" version="1.0"><defs><clipPath id="clip-0"><path d="M 97.785156 75 L 729.285156 75 L 729.285156 758 L 97.785156 758 Z M 97.785156 75 " clip-rule="nonzero"/></clipPath></defs><g clip-path="url(#clip-0)"><path fill="rgb(100%, 61.178589%, 44.309998%)" d="M 635.464844 75.488281 L 621.875 89.066406 C 676.960938 157.472656 709.992188 244.402344 709.992188 339.132812 C 709.992188 559.746094 531.253906 738.410156 310.460938 738.410156 C 232.242188 738.410156 159.386719 715.921875 97.785156 677.136719 L 97.785156 699.488281 C 160.152344 736.355469 232.796875 757.59375 310.460938 757.59375 C 541.636719 757.59375 729.1875 570.121094 729.1875 339.132812 C 729.1875 239.183594 694.035156 147.449219 635.464844 75.488281 Z M 580.625 326.597656 C 580.832031 330.777344 580.972656 334.953125 580.972656 339.132812 C 580.972656 501.292969 449.617188 632.613281 287.359375 632.613281 C 215.0625 632.613281 148.933594 606.5 97.785156 563.226562 L 97.785156 581.296875 C 150.050781 622.203125 215.832031 646.675781 287.359375 646.675781 C 457.25 646.675781 595.082031 508.917969 595.082031 339.132812 C 595.082031 334.953125 594.910156 330.777344 594.734375 326.597656 Z M 580.625 326.597656 " fill-opacity="1" fill-rule="nonzero"/></g></svg>