<?xml version="1.0" encoding="UTF-8"?><svg xmlns="http://www.w3.org/2000/svg" xmlns:xlink="http://www.w3.org/1999/xlink" width="810pt" zoomAndPan="magnify" viewBox="0 0 810 809.999993" height="809.999993pt" preserveAspectRatio="xMidYMid meet" version="1.2"><g xml:id="surface1" id="surface1"><path style=" stroke:none;fill-rule:nonzero;fill:rgb(96.469116%,52.938843%,7.058716%);fill-opacity:1;" d="M 487.152344 266.820312 C 512.546875 287.457031 529.558594 319.578125 530.761719 352.210938 C 526.597656 354.710938 524.015625 359.390625 526.0625 365.285156 C 527.242188 368.691406 528.152344 372.046875 528.824219 375.367188 C 528.179688 378.464844 527.386719 381.550781 526.410156 384.601562 C 511.417969 431.445312 456.480469 442.78125 410.082031 435.191406 C 470.445312 427.746094 529.445312 359.828125 487.265625 289.0625 C 471.433594 262.488281 443.199219 248.136719 413.328125 244.425781 C 439.296875 242.808594 465.679688 249.367188 487.152344 266.820312 Z M 356.699219 336.453125 C 368.5625 321.257812 392.5625 314.164062 404.660156 323.820312 C 404.175781 324.058594 403.707031 324.347656 403.265625 324.675781 C 399.210938 326.433594 396.285156 330.480469 396.097656 335.339844 C 396.011719 337.5625 395.933594 339.789062 395.847656 342.015625 C 395.652344 347.222656 399.609375 352.171875 404.574219 353.472656 C 410.054688 354.902344 415.589844 356.132812 421.082031 357.46875 C 427.207031 358.960938 435.390625 355.589844 436.554688 348.6875 C 450.289062 267.21875 326.339844 283.816406 320.363281 351.03125 C 318.398438 310.402344 347.882812 270.703125 401.503906 270.949219 C 486.390625 271.328125 498.066406 387.101562 416.1875 406.722656 C 380.847656 415.191406 329.4375 371.320312 356.699219 336.453125 Z M 558.320312 381.949219 C 574.097656 314.761719 527.316406 244.769531 465.085938 219.894531 C 388.265625 189.183594 280.75 247.699219 273.132812 331.445312 C 266.207031 407.546875 346.339844 471.046875 411.574219 489.8125 C 445.066406 499.445312 482.175781 496.902344 511.761719 477.75 C 542.570312 457.816406 564.058594 417.914062 558.320312 381.949219 "/><path style=" stroke:none;fill-rule:nonzero;fill:rgb(96.469116%,52.938843%,7.058716%);fill-opacity:1;" d="M 537.25 236.546875 C 542.503906 233.609375 545.753906 232.757812 549.933594 227.90625 C 554.910156 222.109375 559.746094 216.164062 564.519531 210.195312 C 566.726562 208.761719 568.851562 207.226562 570.894531 205.582031 C 573.339844 202.8125 575.527344 199.980469 577.71875 197 C 582 191.175781 586.25 185.097656 589.171875 178.46875 C 595.761719 163.492188 575.632812 150.726562 566.75 165.371094 C 560.214844 176.117188 553.996094 186.800781 548.953125 198.183594 C 546.433594 203.878906 540.367188 209.636719 536.554688 214.546875 C 532.136719 220.242188 531.402344 224.003906 529.433594 230.539062 C 528.0625 235.117188 533.28125 238.757812 537.25 236.546875 "/><path style=" stroke:none;fill-rule:nonzero;fill:rgb(96.469116%,52.938843%,7.058716%);fill-opacity:1;" d="M 581.292969 333.539062 C 599.398438 331.355469 621.472656 332.636719 638.4375 325.566406 C 645.515625 322.613281 650.5 316.359375 648.277344 308.257812 C 646.351562 301.269531 638.183594 295.851562 630.953125 298.429688 C 623.289062 301.160156 615.9375 305.054688 608.671875 308.734375 C 599.691406 313.296875 588.859375 315.300781 579.105469 317.425781 C 570.164062 319.363281 572.046875 334.65625 581.292969 333.539062 "/><path style=" stroke:none;fill-rule:nonzero;fill:rgb(96.469116%,52.938843%,7.058716%);fill-opacity:1;" d="M 656.484375 410.449219 C 643.871094 410.476562 631.621094 410.449219 619.144531 411.820312 C 613.28125 412.476562 605.867188 410.371094 600.003906 409.648438 C 592.429688 408.703125 588.460938 409.765625 581.269531 411.492188 C 576.757812 412.582031 576.101562 418.960938 580.003906 421.210938 C 591.753906 427.980469 602.953125 429.355469 616.507812 431.28125 C 622.351562 432.109375 627.644531 435.074219 633.734375 435.878906 C 641.203125 436.867188 648.992188 437.121094 656.484375 436.398438 C 672.828125 434.800781 673.523438 410.402344 656.484375 410.449219 "/><path style=" stroke:none;fill-rule:nonzero;fill:rgb(96.469116%,52.938843%,7.058716%);fill-opacity:1;" d="M 574.59375 533.53125 C 568.03125 527.878906 560.34375 523.578125 553.210938 518.691406 C 545.183594 513.195312 538.351562 505.585938 531.792969 498.507812 C 525.542969 491.765625 513.179688 500.980469 518.886719 508.453125 C 524.882812 516.269531 530.457031 524.382812 536.519531 532.128906 C 543.117188 540.566406 548.675781 549.308594 557.53125 555.621094 C 570.5625 564.914062 586.667969 543.890625 574.59375 533.53125 "/><path style=" stroke:none;fill-rule:nonzero;fill:rgb(96.469116%,52.938843%,7.058716%);fill-opacity:1;" d="M 462.207031 569.609375 C 461.476562 562.933594 458.710938 556.742188 458.398438 550.082031 C 457.839844 537.773438 458.09375 528.113281 453.546875 516.785156 C 451.554688 511.777344 445.285156 511.722656 443.304688 516.785156 C 440.941406 522.785156 439.570312 524.695312 439 531.082031 C 438.242188 539.609375 439.867188 548.523438 438.289062 556.980469 C 435.898438 569.742188 436.824219 582.902344 439.992188 595.582031 C 444.148438 612.203125 467.476562 604.792969 465.042969 588.6875 C 464.074219 582.328125 462.90625 576.023438 462.207031 569.609375 "/><path style=" stroke:none;fill-rule:nonzero;fill:rgb(96.469116%,52.938843%,7.058716%);fill-opacity:1;" d="M 333.503906 499.046875 C 324.511719 515.261719 310.84375 532.28125 306.566406 550.519531 C 302.4375 568.160156 328.644531 575.445312 333.722656 557.996094 C 336.03125 550.058594 336.660156 541.640625 338.414062 533.546875 C 340.386719 524.535156 344.007812 515.746094 347.691406 507.332031 C 351.816406 497.882812 338.753906 489.5625 333.503906 499.046875 "/><path style=" stroke:none;fill-rule:nonzero;fill:rgb(96.469116%,52.938843%,7.058716%);fill-opacity:1;" d="M 263.042969 446.277344 C 257.882812 448.566406 254.363281 449.480469 249.914062 453.585938 C 244.574219 458.507812 239.5625 463.84375 234.511719 469.050781 C 229.289062 474.445312 222.910156 477.734375 217.832031 483.683594 C 213.472656 488.808594 209.027344 494.191406 205.785156 500.105469 C 197.535156 515.136719 218.414062 526.304688 228.207031 513.210938 C 231.683594 508.554688 234.71875 503.617188 238.277344 499.023438 C 242.925781 493.011719 245.972656 485.816406 250.976562 480.230469 C 255.003906 475.730469 259.136719 471.328125 263.265625 466.921875 C 267.816406 462.0625 268.5 458.078125 270.859375 452.285156 C 272.839844 447.410156 266.714844 444.644531 263.042969 446.277344 "/><path style=" stroke:none;fill-rule:nonzero;fill:rgb(96.469116%,52.938843%,7.058716%);fill-opacity:1;" d="M 244.203125 361.792969 C 254.390625 360.539062 255.054688 345.070312 244.203125 345.375 C 225.617188 345.890625 203.960938 342.785156 186.058594 348.394531 C 168.777344 353.800781 175.878906 380.046875 193.542969 375.53125 C 201.542969 373.488281 209.117188 369.734375 216.980469 367.144531 C 225.71875 364.261719 235.105469 362.898438 244.203125 361.792969 "/><path style=" stroke:none;fill-rule:nonzero;fill:rgb(96.469116%,52.938843%,7.058716%);fill-opacity:1;" d="M 185.480469 253.09375 C 198.320312 256.503906 211.320312 259.03125 224.113281 262.117188 C 229.777344 263.488281 235.503906 266.542969 240.917969 268.722656 C 247.765625 271.480469 251.449219 271.183594 258.527344 271.339844 C 263.195312 271.441406 265.523438 265.480469 262.289062 262.257812 C 253.195312 253.222656 243.679688 249.210938 231.714844 244.097656 C 225.152344 241.296875 219.871094 236.5 212.910156 233.894531 C 206.238281 231.402344 199.421875 229.175781 192.378906 228.0625 C 176.230469 225.527344 168.929688 248.695312 185.480469 253.09375 "/><path style=" stroke:none;fill-rule:nonzero;fill:rgb(96.469116%,52.938843%,7.058716%);fill-opacity:1;" d="M 446.738281 190.011719 C 453.886719 178.464844 455.585938 167.207031 457.929688 153.699219 C 458.964844 147.726562 462.238281 142.859375 462.980469 136.535156 C 463.859375 128.96875 464.703125 121.449219 464.1875 113.832031 C 463.082031 97.246094 438.695312 96.980469 438.21875 113.832031 C 437.863281 126.382812 437.453125 138.597656 438.457031 151.070312 C 438.980469 157.429688 436.328125 165.765625 435.316406 172.132812 C 434.28125 178.644531 435.722656 182.5 437.023438 188.738281 C 437.988281 193.4375 444.453125 193.691406 446.738281 190.011719 "/><path style=" stroke:none;fill-rule:nonzero;fill:rgb(96.469116%,52.938843%,7.058716%);fill-opacity:1;" d="M 318.496094 176.792969 C 325.210938 184.074219 329.972656 193.792969 334.582031 202.457031 C 338.882812 210.539062 353.203125 204.792969 349.59375 196.128906 C 341.992188 177.890625 336.8125 156.164062 324.285156 140.628906 C 314.265625 128.195312 293 144.65625 302.167969 157.671875 C 306.953125 164.472656 312.859375 170.703125 318.496094 176.792969 "/></g></svg>