<?xml version="1.0" encoding="UTF-8"?><svg xmlns="http://www.w3.org/2000/svg" xmlns:xlink="http://www.w3.org/1999/xlink" width="810" zoomAndPan="magnify" viewBox="0 0 810 809.999993" height="809.999993" preserveAspectRatio="xMidYMid meet" version="1.0"><defs><clipPath id="clip-0"><path d="M 379.625 379 L 430 379 L 430 426 L 379.625 426 Z M 379.625 379 " clip-rule="nonzero"/></clipPath><clipPath id="clip-1"><path d="M 381 378.636719 L 430.625 378.636719 L 430.625 429 L 381 429 Z M 381 378.636719 " clip-rule="nonzero"/></clipPath></defs><path fill="rgb(94.509888%, 48.629761%, 28.239441%)" d="M 396.96875 395.257812 L 399.875 416.546875 C 399.875 416.546875 392.617188 415.355469 391.871094 405.066406 C 391.292969 397.070312 396.96875 395.257812 396.96875 395.257812 Z M 394.839844 393.242188 C 395.347656 394.1875 396.800781 393.347656 396.292969 392.398438 C 394.9375 389.882812 393.582031 387.363281 392.230469 384.847656 C 391.71875 383.898438 390.265625 384.742188 390.777344 385.6875 C 392.128906 388.207031 393.484375 390.722656 394.839844 393.242188 Z M 413.433594 380.296875 C 411.914062 383.292969 410.625 386.402344 409.578125 389.59375 C 409.242188 390.617188 410.867188 391.054688 411.199219 390.039062 C 412.203125 386.980469 413.433594 384.007812 414.886719 381.136719 C 415.375 380.179688 413.921875 379.335938 413.433594 380.296875 Z M 428.132812 401.066406 C 424.507812 401.226562 420.898438 401.699219 417.359375 402.488281 C 416.304688 402.722656 416.75 404.332031 417.808594 404.097656 C 421.203125 403.339844 424.65625 402.886719 428.132812 402.734375 C 429.210938 402.6875 429.21875 401.019531 428.132812 401.066406 Z M 400.066406 420.90625 C 400.066406 423.960938 400.066406 427.011719 400.066406 430.0625 C 400.066406 431.136719 401.75 431.136719 401.75 430.0625 C 401.75 427.011719 401.75 423.960938 401.75 420.90625 C 401.75 419.835938 400.066406 419.832031 400.066406 420.90625 Z M 390.582031 412.953125 C 387.347656 413.871094 384.230469 415.207031 381.347656 416.925781 C 380.417969 417.476562 381.265625 418.921875 382.195312 418.367188 C 384.964844 416.71875 387.925781 415.441406 391.03125 414.558594 C 392.070312 414.265625 391.628906 412.65625 390.582031 412.953125 Z M 390.582031 412.953125 " fill-opacity="1" fill-rule="nonzero"/><g clip-path="url(#clip-0)"><path fill="rgb(93.728638%, 29.798889%, 38.42926%)" d="M 405.132812 393.355469 L 408.867188 414.789062 C 408.867188 414.789062 406.261719 416.316406 404.171875 416.546875 C 402.078125 416.777344 399.875 416.546875 399.875 416.546875 L 396.96875 395.257812 C 396.96875 395.257812 398.605469 394.34375 400.894531 393.8125 C 403.183594 393.285156 405.132812 393.355469 405.132812 393.355469 Z M 410.832031 417.566406 C 410.304688 416.632812 408.847656 417.472656 409.378906 418.410156 C 410.757812 420.851562 412.34375 423.160156 414.101562 425.347656 C 414.386719 425.699219 414.996094 425.640625 415.292969 425.347656 C 415.644531 424.996094 415.578125 424.519531 415.292969 424.167969 C 413.625 422.09375 412.136719 419.878906 410.832031 417.566406 Z M 428.464844 407.863281 C 425 407.917969 421.535156 407.976562 418.070312 408.03125 C 416.988281 408.046875 416.984375 409.714844 418.070312 409.699219 C 421.535156 409.644531 425 409.585938 428.464844 409.53125 C 429.546875 409.515625 429.550781 407.847656 428.464844 407.863281 Z M 424.609375 386.15625 C 424.257812 385.808594 423.777344 385.875 423.417969 386.15625 C 420.960938 388.085938 418.503906 390.011719 416.042969 391.941406 C 415.6875 392.21875 415.75 392.828125 416.042969 393.117188 C 416.394531 393.46875 416.875 393.398438 417.234375 393.117188 C 419.691406 391.191406 422.152344 389.261719 424.609375 387.335938 C 424.96875 387.054688 424.90625 386.449219 424.609375 386.15625 Z M 401.433594 390.816406 C 401.902344 390.691406 402.101562 390.238281 402.019531 389.792969 C 401.46875 386.738281 401.28125 383.628906 401.433594 380.527344 C 401.484375 379.453125 399.800781 379.457031 399.75 380.527344 C 399.589844 383.777344 399.820312 387.03125 400.398438 390.234375 C 400.476562 390.679688 401.023438 390.929688 401.433594 390.816406 Z M 391.191406 401.523438 C 391.191406 401.027344 390.804688 400.746094 390.351562 400.691406 C 388.699219 400.484375 387.117188 399.859375 385.558594 399.304688 C 383.941406 398.730469 382.308594 398.222656 380.582031 398.109375 C 380.128906 398.082031 379.742188 398.515625 379.742188 398.945312 C 379.742188 399.421875 380.128906 399.75 380.582031 399.777344 C 382.246094 399.886719 383.832031 400.457031 385.386719 401.011719 C 387.015625 401.59375 388.628906 402.140625 390.351562 402.355469 C 390.800781 402.414062 391.191406 401.933594 391.191406 401.523438 Z M 391.992188 415.949219 C 390.398438 418.390625 388.855469 420.863281 387.367188 423.367188 C 386.816406 424.292969 388.273438 425.132812 388.820312 424.210938 C 390.308594 421.703125 391.851562 419.230469 393.445312 416.789062 C 394.035156 415.886719 392.578125 415.046875 391.992188 415.949219 Z M 391.992188 415.949219 " fill-opacity="1" fill-rule="nonzero"/></g><path fill="rgb(96.859741%, 93.728638%, 46.269226%)" d="M 408.867188 414.789062 L 405.132812 393.355469 C 409.039062 393.761719 412.964844 398.378906 413.960938 402.644531 C 415.90625 410.992188 408.867188 414.789062 408.867188 414.789062 Z M 391.101562 395.828125 C 389.652344 394.980469 388.207031 394.132812 386.757812 393.285156 C 385.339844 392.457031 383.890625 391.738281 382.203125 391.996094 C 381.753906 392.0625 381.507812 392.621094 381.617188 393.019531 C 381.75 393.496094 382.199219 393.671875 382.652344 393.601562 C 383.957031 393.402344 385.265625 394.347656 386.320312 394.96875 C 387.632812 395.734375 388.941406 396.5 390.253906 397.265625 C 391.1875 397.816406 392.035156 396.375 391.101562 395.828125 Z M 422.410156 420.25 C 420.082031 418.617188 417.753906 416.984375 415.425781 415.355469 C 415.054688 415.09375 414.488281 415.289062 414.273438 415.652344 C 414.027344 416.070312 414.203125 416.535156 414.574219 416.792969 C 416.902344 418.425781 419.234375 420.058594 421.5625 421.6875 C 421.933594 421.949219 422.496094 421.753906 422.710938 421.390625 C 422.960938 420.972656 422.78125 420.507812 422.410156 420.25 Z M 405.710938 389.84375 C 405.710938 386.902344 405.710938 383.960938 405.710938 381.015625 C 405.710938 379.945312 404.027344 379.941406 404.027344 381.015625 C 404.027344 383.960938 404.027344 386.902344 404.027344 389.84375 C 404.027344 390.917969 405.710938 390.921875 405.710938 389.84375 Z M 413.589844 391.949219 C 415.558594 388.9375 417.871094 386.167969 419.949219 383.238281 C 420.210938 382.867188 420.019531 382.308594 419.648438 382.09375 C 419.230469 381.851562 418.757812 382.023438 418.496094 382.394531 C 416.417969 385.328125 414.101562 388.097656 412.136719 391.105469 C 411.542969 392.011719 413 392.847656 413.589844 391.949219 Z M 389.136719 403.777344 C 386.660156 404.289062 384.132812 404.480469 381.601562 404.363281 C 380.519531 404.3125 380.523438 405.980469 381.601562 406.027344 C 384.28125 406.152344 386.960938 405.929688 389.585938 405.382812 C 390.03125 405.292969 390.289062 404.773438 390.171875 404.359375 C 390.046875 403.902344 389.585938 403.683594 389.136719 403.777344 Z M 396.238281 421.363281 C 395.625 424.046875 394.9375 426.710938 394.171875 429.355469 C 393.871094 430.390625 395.496094 430.828125 395.792969 429.796875 C 396.558594 427.152344 397.25 424.488281 397.859375 421.804688 C 398.097656 420.761719 396.476562 420.3125 396.238281 421.363281 Z M 396.238281 421.363281 " fill-opacity="1" fill-rule="nonzero"/><g clip-path="url(#clip-1)"><path fill="rgb(0%, 0%, 0%)" d="M 405.78125 392.617188 C 405.242188 392.539062 404.707031 392.503906 404.160156 392.535156 C 400.644531 392.773438 396.957031 393.644531 394.363281 396.160156 C 392.371094 398.09375 391.285156 400.832031 390.996094 403.550781 C 390.839844 405.007812 391.195312 406.597656 391.566406 407.996094 C 392.144531 410.171875 393.085938 412.273438 394.507812 414.035156 C 396.097656 416.003906 398.332031 417.269531 400.859375 417.554688 C 403.917969 417.898438 407.28125 416.832031 409.828125 415.179688 C 412.066406 413.730469 413.769531 411.625 414.574219 409.089844 C 415.316406 406.765625 415.261719 404.222656 414.640625 401.878906 C 413.542969 397.738281 410.34375 393.292969 405.78125 392.617188 Z M 392.683594 403.527344 C 392.679688 403.566406 392.675781 403.589844 392.675781 403.609375 C 392.675781 403.601562 392.675781 403.59375 392.675781 403.585938 C 392.675781 403.566406 392.679688 403.546875 392.683594 403.527344 Z M 413.410156 406.265625 C 413.398438 406.398438 413.386719 406.535156 413.375 406.667969 C 413.367188 406.730469 413.363281 406.789062 413.355469 406.851562 C 413.351562 406.878906 413.347656 406.90625 413.34375 406.9375 C 413.34375 406.949219 413.339844 406.964844 413.335938 406.992188 C 413.25 407.527344 413.136719 408.058594 412.972656 408.574219 C 412.78125 409.199219 412.671875 409.460938 412.398438 409.996094 C 412.136719 410.511719 411.828125 410.996094 411.484375 411.457031 C 411.46875 411.476562 411.460938 411.488281 411.453125 411.5 C 411.445312 411.511719 411.4375 411.519531 411.421875 411.539062 C 411.390625 411.578125 411.355469 411.621094 411.320312 411.660156 C 411.21875 411.78125 411.113281 411.902344 411.007812 412.019531 C 410.804688 412.242188 410.59375 412.453125 410.375 412.660156 C 409.859375 413.136719 409.5 413.410156 408.902344 413.789062 C 408.320312 414.164062 407.703125 414.488281 407.070312 414.769531 C 405.792969 415.332031 404.167969 415.792969 402.808594 415.90625 C 401.503906 416.015625 400.5 415.929688 399.292969 415.511719 C 398.835938 415.355469 398.40625 415.15625 397.875 414.832031 C 397.660156 414.695312 397.449219 414.550781 397.246094 414.398438 C 397.246094 414.398438 397.246094 414.398438 397.242188 414.398438 C 397.234375 414.390625 397.230469 414.386719 397.214844 414.375 C 397.160156 414.332031 397.105469 414.285156 397.046875 414.238281 C 396.9375 414.148438 396.832031 414.050781 396.722656 413.953125 C 395.863281 413.164062 395.402344 412.542969 394.820312 411.558594 C 394.558594 411.113281 394.320312 410.652344 394.105469 410.183594 C 394.078125 410.121094 394.050781 410.058594 394.023438 409.992188 C 394.015625 409.980469 393.992188 409.929688 393.980469 409.894531 C 393.941406 409.804688 393.902344 409.710938 393.867188 409.621094 C 393.765625 409.367188 393.671875 409.113281 393.585938 408.859375 C 393.289062 407.996094 393.054688 407.113281 392.886719 406.214844 C 392.847656 406.019531 392.8125 405.824219 392.785156 405.625 C 392.78125 405.597656 392.765625 405.488281 392.753906 405.429688 C 392.746094 405.367188 392.730469 405.238281 392.726562 405.203125 C 392.691406 404.894531 392.667969 404.585938 392.660156 404.277344 C 392.652344 404.058594 392.664062 403.847656 392.671875 403.632812 C 392.679688 403.597656 392.691406 403.492188 392.695312 403.464844 C 392.714844 403.320312 392.742188 403.175781 392.765625 403.03125 C 392.828125 402.6875 392.902344 402.347656 392.988281 402.011719 C 393.308594 400.738281 393.703125 399.761719 394.4375 398.667969 C 395.0625 397.734375 396.015625 396.824219 397.011719 396.203125 C 398.347656 395.367188 399.8125 394.878906 401.371094 394.5625 C 402.289062 394.375 403.222656 394.265625 404.160156 394.203125 C 404.394531 394.1875 404.628906 394.183594 404.863281 394.195312 C 404.980469 394.199219 405.097656 394.207031 405.210938 394.214844 C 405.265625 394.222656 405.316406 394.226562 405.371094 394.234375 C 405.386719 394.234375 405.394531 394.234375 405.402344 394.234375 C 405.417969 394.238281 405.433594 394.242188 405.460938 394.246094 C 405.917969 394.328125 406.367188 394.4375 406.804688 394.597656 C 406.863281 394.621094 406.921875 394.644531 406.984375 394.667969 C 406.984375 394.667969 407.027344 394.683594 407.058594 394.699219 C 407.089844 394.710938 407.132812 394.730469 407.136719 394.730469 C 407.195312 394.757812 407.253906 394.785156 407.308594 394.8125 C 407.535156 394.921875 407.753906 395.039062 407.964844 395.164062 C 408.164062 395.28125 408.359375 395.40625 408.546875 395.535156 C 408.640625 395.601562 408.734375 395.671875 408.828125 395.738281 C 408.84375 395.757812 409.027344 395.902344 409.066406 395.929688 C 409.449219 396.25 409.8125 396.597656 410.152344 396.96875 C 410.324219 397.15625 410.488281 397.351562 410.652344 397.550781 C 410.660156 397.5625 410.71875 397.636719 410.734375 397.65625 C 410.75 397.675781 410.765625 397.695312 410.777344 397.714844 C 410.878906 397.847656 410.976562 397.980469 411.070312 398.117188 C 411.371094 398.546875 411.648438 399 411.894531 399.460938 C 412.023438 399.699219 412.140625 399.9375 412.253906 400.179688 C 412.296875 400.273438 412.34375 400.375 412.386719 400.472656 C 412.402344 400.507812 412.429688 400.570312 412.433594 400.582031 C 412.460938 400.648438 412.488281 400.71875 412.515625 400.785156 C 412.71875 401.3125 412.894531 401.847656 413.035156 402.394531 C 413.097656 402.632812 413.152344 402.871094 413.203125 403.113281 C 413.230469 403.257812 413.257812 403.402344 413.285156 403.550781 C 413.292969 403.609375 413.304688 403.671875 413.3125 403.730469 C 413.316406 403.75 413.328125 403.828125 413.332031 403.871094 C 413.398438 404.398438 413.433594 404.925781 413.4375 405.457031 C 413.4375 405.726562 413.425781 405.996094 413.410156 406.265625 Z M 406.535156 389.625 C 407.285156 386.371094 407.609375 383.046875 407.507812 379.707031 C 407.476562 378.632812 409.160156 378.636719 409.191406 379.707031 C 409.296875 383.1875 408.941406 386.675781 408.15625 390.066406 C 407.914062 391.113281 406.292969 390.667969 406.535156 389.625 Z M 387.550781 390.132812 C 387.753906 389.75 388.332031 389.589844 388.699219 389.832031 C 390.585938 391.082031 392.324219 392.550781 393.851562 394.214844 C 394.167969 394.558594 394.171875 395.046875 393.851562 395.394531 C 393.554688 395.714844 392.960938 395.714844 392.664062 395.394531 C 391.933594 394.597656 391.15625 393.847656 390.335938 393.144531 C 390.125 392.960938 389.90625 392.78125 389.6875 392.605469 C 389.585938 392.523438 389.480469 392.441406 389.375 392.359375 C 389.363281 392.351562 389.300781 392.300781 389.28125 392.289062 C 389.269531 392.277344 389.15625 392.195312 389.15625 392.191406 C 388.730469 391.875 388.296875 391.566406 387.851562 391.273438 C 387.460938 391.011719 387.324219 390.550781 387.550781 390.132812 Z M 389.199219 408.734375 C 386.78125 408.914062 384.355469 409.003906 381.929688 409 C 380.847656 409 380.847656 407.332031 381.929688 407.332031 C 384.355469 407.335938 386.78125 407.246094 389.199219 407.066406 C 389.652344 407.03125 390.039062 407.476562 390.039062 407.898438 C 390.039062 408.375 389.652344 408.699219 389.199219 408.734375 Z M 396.617188 419.441406 C 395.429688 420.585938 394.339844 421.734375 393.488281 423.144531 C 392.585938 424.640625 391.769531 426.1875 390.917969 427.710938 C 390.394531 428.648438 388.941406 427.808594 389.464844 426.867188 C 390.339844 425.300781 391.175781 423.703125 392.113281 422.171875 C 393.023438 420.695312 394.179688 419.464844 395.429688 418.265625 C 396.207031 417.515625 397.398438 418.695312 396.617188 419.441406 Z M 410.085938 425.207031 C 410.304688 425.605469 410.1875 426.113281 409.785156 426.347656 C 409.402344 426.570312 408.851562 426.445312 408.632812 426.050781 C 407.484375 423.945312 406.246094 421.890625 404.917969 419.890625 C 404.667969 419.511719 404.84375 418.96875 405.21875 418.75 C 405.625 418.511719 406.121094 418.671875 406.371094 419.046875 C 407.699219 421.046875 408.9375 423.101562 410.085938 425.207031 Z M 426.773438 414.28125 C 423.378906 413.503906 419.898438 413.230469 416.421875 413.433594 C 415.335938 413.5 415.34375 411.832031 416.421875 411.769531 C 420.042969 411.550781 423.6875 411.863281 427.222656 412.671875 C 428.277344 412.914062 427.828125 414.523438 426.773438 414.28125 Z M 429.78125 395.710938 C 427.761719 396.550781 425.617188 397.015625 423.539062 397.691406 C 421.492188 398.359375 419.597656 399.433594 417.40625 399.578125 C 416.953125 399.609375 416.566406 399.175781 416.566406 398.746094 C 416.566406 398.273438 416.953125 397.941406 417.40625 397.910156 C 419.457031 397.777344 421.320312 396.648438 423.246094 396.035156 C 425.277344 395.382812 427.363281 394.921875 429.335938 394.101562 C 429.757812 393.925781 430.261719 394.292969 430.371094 394.683594 C 430.503906 395.15625 430.203125 395.535156 429.78125 395.710938 Z M 429.78125 395.710938 " fill-opacity="1" fill-rule="nonzero"/></g></svg>