<?xml version="1.0" encoding="UTF-8"?><svg xmlns="http://www.w3.org/2000/svg" xmlns:xlink="http://www.w3.org/1999/xlink" width="810" zoomAndPan="magnify" viewBox="0 0 810 809.999993" height="809.999993" preserveAspectRatio="xMidYMid meet" version="1.0"><defs><clipPath id="clip-0"><path d="M 440.664062 405 L 465.414062 405 L 465.414062 458 L 440.664062 458 Z M 440.664062 405 " clip-rule="nonzero"/></clipPath></defs><path fill="rgb(39.99939%, 65.879822%, 76.078796%)" d="M 456.941406 434.632812 C 458.363281 436.292969 459.722656 438.007812 461.027344 439.773438 C 461.886719 440.9375 462.738281 442.167969 463.035156 443.585938 C 463.628906 446.472656 461.757812 449.277344 459.765625 451.472656 C 458.863281 452.460938 457.820312 453.300781 456.683594 454.015625 C 449.933594 458.207031 448.5 450.726562 448.074219 448.605469 C 447.652344 446.484375 448.839844 441.714844 449.933594 439.835938 C 451.027344 437.953125 454.761719 434.402344 456.941406 434.632812 " fill-opacity="1" fill-rule="nonzero"/><g clip-path="url(#clip-0)"><path fill="rgb(0%, 50.588989%, 69.40918%)" d="M 450.664062 442.734375 C 450.664062 442.722656 450.664062 442.722656 450.675781 442.714844 C 450.675781 442.703125 450.6875 442.691406 450.6875 442.679688 C 450.707031 442.617188 450.71875 442.554688 450.738281 442.503906 C 450.78125 442.355469 450.804688 442.304688 450.664062 442.734375 Z M 465.070312 445.222656 C 464.773438 446.9375 464.019531 448.605469 463.066406 450.046875 C 461.34375 452.652344 459.179688 454.929688 456.472656 456.527344 C 454.890625 457.460938 452.84375 458.25 450.984375 457.734375 C 448.148438 456.9375 446.917969 454.007812 446.300781 451.390625 C 446.195312 450.949219 446.101562 450.496094 446.027344 450.054688 C 445.847656 448.878906 445.921875 447.746094 446.070312 446.570312 C 446.335938 444.457031 446.886719 442.273438 447.765625 440.339844 C 448.753906 438.164062 450.273438 436.367188 452.078125 434.804688 C 452.386719 434.539062 452.714844 434.265625 453.054688 433.992188 C 448.882812 428.785156 444.835938 423.511719 441.207031 417.933594 C 441.152344 417.859375 441.109375 417.785156 441.078125 417.699219 C 440.6875 416.902344 440.929688 415.925781 441.355469 415.117188 C 441.398438 415.03125 441.429688 414.957031 441.472656 414.886719 C 443.351562 411.386719 446.335938 408.5 449.359375 405.964844 C 450.210938 405.253906 451.484375 405 451.929688 406.25 C 452.128906 406.808594 451.949219 407.605469 451.757812 408.121094 C 451.503906 408.792969 451.046875 409.476562 450.496094 409.9375 C 449.847656 410.484375 449.210938 411.039062 448.585938 411.617188 C 448.265625 411.914062 447.949219 412.21875 447.628906 412.53125 C 447.585938 412.574219 447.542969 412.617188 447.511719 412.65625 C 447.386719 412.785156 447.269531 412.921875 447.140625 413.046875 C 446.597656 413.625 446.078125 414.222656 445.601562 414.855469 C 449.710938 421.019531 454.890625 427.703125 459.464844 433.351562 C 459.464844 433.351562 459.464844 433.363281 459.476562 433.363281 C 460.285156 434.328125 461.070312 435.308594 461.824219 436.304688 C 462.703125 437.460938 463.640625 438.617188 464.285156 439.929688 C 465.125 441.609375 465.390625 443.355469 465.070312 445.222656 Z M 456.992188 451.433594 C 456.941406 451.472656 456.917969 451.496094 456.992188 451.433594 Z M 461.007812 446.316406 C 461.015625 446.273438 461.027344 446.074219 461.046875 445.980469 C 461.046875 445.769531 461.046875 445.558594 461.039062 445.351562 C 461.039062 445.328125 461.039062 445.316406 461.039062 445.308594 C 461.015625 445.234375 460.996094 445.148438 460.996094 445.140625 C 460.941406 444.929688 460.890625 444.730469 460.816406 444.53125 C 460.78125 444.445312 460.632812 444.101562 460.65625 444.121094 C 460.242188 443.289062 459.691406 442.535156 459.136719 441.789062 C 458 440.253906 456.824219 438.761719 455.589844 437.304688 C 455.464844 437.34375 455.335938 437.386719 455.210938 437.417969 C 455.125 437.460938 455.050781 437.503906 454.964844 437.542969 C 454.722656 437.671875 454.488281 437.808594 454.265625 437.953125 C 454.296875 437.933594 454.339844 437.902344 454.371094 437.871094 C 454.273438 437.945312 454.167969 438.015625 454.0625 438.089844 C 453.820312 438.269531 453.597656 438.457031 453.363281 438.648438 C 453.171875 438.816406 452.96875 438.984375 452.789062 439.164062 C 452.683594 439.257812 452.578125 439.363281 452.480469 439.457031 C 452.195312 439.761719 451.917969 440.078125 451.652344 440.402344 C 451.621094 440.445312 451.578125 440.507812 451.535156 440.570312 C 451.578125 440.507812 451.621094 440.433594 451.675781 440.339844 C 451.601562 440.464844 451.515625 440.582031 451.441406 440.707031 C 451.429688 440.726562 451.417969 440.75 451.410156 440.769531 C 451.386719 440.800781 451.375 440.820312 451.367188 440.84375 C 451.367188 440.84375 451.367188 440.855469 451.355469 440.855469 C 451.355469 440.855469 451.367188 440.84375 451.367188 440.832031 C 451.355469 440.84375 451.355469 440.855469 451.34375 440.875 C 451.300781 440.96875 451.261719 441.074219 451.21875 441.167969 C 451.046875 441.597656 450.898438 442.03125 450.761719 442.472656 C 450.761719 442.480469 450.75 442.503906 450.75 442.511719 C 450.730469 442.566406 450.707031 442.640625 450.699219 442.691406 C 450.675781 442.753906 450.65625 442.828125 450.632812 442.890625 C 450.65625 442.839844 450.664062 442.785156 450.675781 442.746094 C 450.613281 442.996094 450.550781 443.25 450.484375 443.5 C 450.378906 443.972656 450.285156 444.445312 450.199219 444.929688 C 450.15625 445.171875 450.125 445.421875 450.09375 445.675781 C 450.09375 445.632812 450.09375 445.589844 450.101562 445.539062 C 450.09375 445.65625 450.082031 445.769531 450.082031 445.886719 C 450.058594 446.253906 450.070312 446.609375 450.09375 446.976562 C 450.09375 447 450.101562 447.019531 450.101562 447.042969 C 450.113281 447.113281 450.136719 447.199219 450.144531 447.273438 C 450.1875 447.480469 450.230469 447.691406 450.285156 447.902344 C 450.410156 448.429688 450.550781 448.953125 450.730469 449.46875 C 450.8125 449.71875 450.910156 449.960938 451.003906 450.203125 C 451.015625 450.246094 451.046875 450.320312 451.078125 450.371094 C 451.078125 450.371094 451.089844 450.382812 451.089844 450.382812 C 451.113281 450.433594 451.144531 450.488281 451.152344 450.539062 C 451.144531 450.507812 451.132812 450.476562 451.121094 450.445312 C 451.164062 450.539062 451.21875 450.625 451.261719 450.707031 C 451.515625 451.167969 451.832031 451.601562 452.195312 451.976562 C 452.503906 452.21875 452.832031 452.417969 453.191406 452.554688 C 453.382812 452.597656 453.574219 452.628906 453.765625 452.640625 C 453.902344 452.652344 454.042969 452.640625 454.179688 452.652344 C 454.210938 452.652344 454.234375 452.640625 454.265625 452.640625 C 454.59375 452.585938 454.921875 452.492188 455.25 452.386719 C 455.242188 452.398438 455.21875 452.410156 455.210938 452.417969 C 455.230469 452.410156 455.261719 452.386719 455.285156 452.378906 C 455.285156 452.378906 455.292969 452.378906 455.292969 452.378906 C 455.316406 452.367188 455.335938 452.355469 455.359375 452.347656 C 455.378906 452.335938 455.410156 452.324219 455.433594 452.316406 C 455.632812 452.21875 455.824219 452.125 456.027344 452.019531 C 456.417969 451.808594 456.769531 451.515625 457.164062 451.316406 C 457.226562 451.265625 457.289062 451.222656 457.355469 451.167969 C 457.535156 451.03125 457.703125 450.894531 457.875 450.75 C 458.085938 450.570312 458.296875 450.382812 458.5 450.191406 C 458.511719 450.191406 458.511719 450.183594 458.523438 450.171875 C 458.542969 450.152344 458.5625 450.128906 458.597656 450.097656 C 458.628906 450.066406 458.648438 450.035156 458.679688 450.003906 C 458.703125 449.984375 458.722656 449.960938 458.746094 449.949219 C 458.734375 449.960938 458.710938 449.972656 458.703125 449.984375 C 458.988281 449.65625 459.277344 449.339844 459.550781 449.003906 C 459.699219 448.816406 459.859375 448.628906 459.996094 448.429688 C 460.019531 448.394531 460.039062 448.363281 460.070312 448.332031 C 460.070312 448.332031 460.070312 448.324219 460.082031 448.324219 C 460.304688 447.976562 460.507812 447.617188 460.707031 447.261719 C 460.742188 447.1875 460.773438 447.113281 460.804688 447.042969 C 460.824219 446.976562 460.910156 446.738281 460.964844 446.601562 C 460.964844 446.484375 460.996094 446.347656 461.007812 446.316406 Z M 461.046875 446.117188 C 461.046875 446.09375 461.046875 446.085938 461.046875 446.0625 C 461.039062 446.222656 461.046875 446.421875 461.046875 446.117188 Z M 451.386719 440.757812 C 451.375 440.78125 451.367188 440.800781 451.355469 440.820312 C 451.375 440.789062 451.429688 440.707031 451.515625 440.558594 C 451.472656 440.632812 451.417969 440.695312 451.386719 440.757812 Z M 450.09375 445.65625 C 450.09375 445.65625 450.09375 445.664062 450.09375 445.664062 C 450.070312 445.832031 450.058594 446.242188 450.09375 445.65625 Z M 458.511719 450.183594 C 458.554688 450.140625 458.617188 450.066406 458.671875 450.015625 C 458.679688 450.003906 458.679688 450.003906 458.691406 449.992188 C 458.394531 450.183594 458.40625 450.265625 458.511719 450.183594 Z M 451.003906 450.191406 C 451.027344 450.234375 451.039062 450.277344 451.058594 450.320312 C 451.070312 450.339844 451.078125 450.359375 451.078125 450.382812 C 451.089844 450.402344 451.101562 450.421875 451.113281 450.445312 C 451.003906 450.160156 450.984375 450.140625 451.003906 450.191406 Z M 455.242188 452.386719 C 455.25 452.386719 455.261719 452.378906 455.273438 452.378906 C 455.292969 452.367188 455.328125 452.355469 455.347656 452.347656 C 455.507812 452.273438 455.625 452.15625 455.242188 452.386719 Z M 454.242188 437.945312 C 454.234375 437.945312 454.234375 437.945312 454.242188 437.945312 C 454.085938 438.039062 453.785156 438.289062 454.242188 437.945312 Z M 454.242188 437.945312 " fill-opacity="1" fill-rule="nonzero"/></g></svg>