<svg xmlns="http://www.w3.org/2000/svg" viewBox="0 0 449.32 305.19"><defs><style>.cls-1{fill:#fff;}</style></defs><title>Yugen</title><g id="Layer_2" data-name="Layer 2"><path class="cls-1" d="M343.63,216.15l-1.37-1.52c-6.25,5.64-20.79,19.08-20.79,22.26v1.71l1.51-.81c7.36-3.92,27.94-13.5,34.56-10.71l.79-1.88c-7.15-3-25.66,5.46-33.14,9.17C328.5,230.37,336.21,222.84,343.63,216.15Z" transform="translate(-25.34 -97.4)"/><path class="cls-1" d="M413.39,146.58c-.26,1-1.4,1.5-2.49,2l-.15.07c-4.32,2-8.56,4.38-12.67,6.65-2.26,1.25-4.59,2.54-6.9,3.76-.34.18-.67.36-1,.52-2-9.28-5.87-15.65-11.59-18.92a20.09,20.09,0,0,0-15.54-1.53l-.61.21-.06.64c-.8,7.24-5.61,13.84-9.71,18.78l-1.1,1.38c-6.12,7.7-10,11.61-11.65,11.61h0l-.05,2c.66,0,1.32,0,2,0,14.08,0,30.32-3.71,44.89-10.28,1.66-.75,3.43-1.62,5.41-2.67,2.33-1.23,4.67-2.53,6.94-3.78,4.08-2.26,8.3-4.6,12.55-6.59l.14-.07c1.31-.61,3.1-1.45,3.61-3.33Z" transform="translate(-25.34 -97.4)"/><path class="cls-1" d="M429.65,145.71,394,167.81l1.64.82c9.86,4.91,25,13.5,26.43,17.07L424,185c-1.88-4.81-19.88-14.31-25.78-17.33l32.52-20.17Z" transform="translate(-25.34 -97.4)"/><path class="cls-1" d="M202.27,109.63l13.81,2.78c-1.44,7,.42,14.86.53,15.31a33.57,33.57,0,0,0,7.23,12.52,37.64,37.64,0,0,0,11.86,8.27l1.39,17.63-84.66,1.43h-.13c-1.73.24-18.52,2.6-39.34,5.7-8.7.61-26.75,3.67-44,6.87-18.71,3.09-34.82,6.06-40.79,8h0l-.8.28a1,1,0,0,0-.64,1.18.84.84,0,0,0,.06.14,2.57,2.57,0,0,0-1.4,2,8.09,8.09,0,0,0,.76,3.9l.15.39a18.75,18.75,0,0,0,1.37,2.89c9.65,44.88,61.17,77.21,61.69,77.53l.28.17c11.84,7.69,49.89,30.92,96.36,44.32,20.1,8,43.57,19.73,44.49,31l.75,48.09,1.87-3.69c.23-.44,5.55-11.16,5.9-30.62V328.4a3.53,3.53,0,0,0-.4-1.46l7.57-.45c2.09,2.48,3.16,5.48,3.53,9.9a103.12,103.12,0,0,1-.15,19.93,18.12,18.12,0,0,1-4.06,9.83c-.1.12-.61.59-1,1-2.41,2.2-2.74,2.59-2.74,3.21v8l.77.19c10,2.49,11.45,13.59,11.51,14.11h0l2-.23a58.33,58.33,0,0,1-.15-8.06c0-1.51.08-3.08.05-4.59-.07-4.45-.18-9.73-.45-15.15-.23-4.78-.63-10-1.26-16.49-.13-1.33-.23-2.68-.33-4a65.62,65.62,0,0,0-1.6-11.76,15.21,15.21,0,0,0-1.81-4.33,9.42,9.42,0,0,0-2-2.15,11.08,11.08,0,0,1-1.11-1.05h0l-11.76-.89c-2-1.31-5.25-2.61-10.38-3.5-26.67-22.87-49.1-27.92-63.65-27.92h-.1c-15.19,0-24.74,5.22-27,6.62a386.57,386.57,0,0,1-42.81-23.58c21.36-16.93,26-39.43,27.24-59.75v0s1-23.43-1.32-32.66l9.88-.8.12,1.21c4,40.62-12.8,83.82-13,84.25l-1.13,2.86s36.72-20.16,41.79-22.78c14.2-7.35,28-17,39.78-25.4l-.89-1.48c-11.74,8.39-25.75,17.77-39.83,25.06a65.9,65.9,0,0,1-9.72,4.19V246.7c2-27.57,32-53.88,36.23-57.48a97.68,97.68,0,0,1,26.64,36.26,66.57,66.57,0,0,1-9.34,8c-19.38,14.46-57.57,36.61-57.95,36.83l-2.5,1.45,2.85.44c89.16,14,104.92,40.62,105.08,40.89l2,3.72-.12-4.24c-.13-4.93-2.85-13.75-8-26.21h0l-.56-1.34-.28-.66h0c-10.95-25.76-28.48-58.08-29-59.11a99.45,99.45,0,0,0-28.5-38.41c-.17-.17-.38-.34-.62-.54l-.54-.43h0l-1.26-.95c9.65,2.61,23.08,14.06,23.23,14.19l3.49,3-1.89-4.19a174.16,174.16,0,0,0-10.1-18.37l8.11-.13c3.7,6.08,8.74,13.83,10.66,14.38l.52.15.42-.35A176.85,176.85,0,0,0,228.58,179l7.83-.13c-1.65,2.33-4.15,5.91-6.87,10.08-2.81,3.51-5.29,6.85-7.5,10.13-.41.61-.84,1.22-1.26,1.82a41.22,41.22,0,0,0-4.6,7.81,15.94,15.94,0,0,0-.06,11.73,93.08,93.08,0,0,0,6.72,13.3c1.76,3.07,3.58,6.24,5.08,9.47l.4.87A80.15,80.15,0,0,0,235,256.47a3.52,3.52,0,0,0,2.17,1.63,2.31,2.31,0,0,0,.37,0c2.56,0,4-4.29,5.11-8.93l.13-.51c.67-2.6,1.63-5.23,2.56-7.77.61-1.66,1.24-3.38,1.78-5.08,1.6-5,3.06-10,4.27-14.25,1.39-4.83,2.55-9.13,3.56-13.14l-1.89-.6a45.39,45.39,0,0,1-4.89,8.89c-.75-24.43-10.73-29.46-14.41-30.48,2.2-3.26,4.07-5.91,5.19-7.47l7.53-.12a10.88,10.88,0,0,0-.25,2.14c0,8.11,9.46,14.7,21.09,14.7s21.09-6.59,21.09-14.7A10.6,10.6,0,0,0,288,178l16.44-.27c-1.79,5.75-4.27,16.12-.92,21.49a7.33,7.33,0,0,0,6,3.44c.15,0,3.59.37,8.47.37h0A66.94,66.94,0,0,0,335.54,201c-.78.7-1.57,1.39-2.37,2.08l-19.28,14.65c-3.89,2.5-7.85,4.86-11.74,7.18l-.41.24c-3.12-.8-4.86-2.29-7-4.13-2.61-2.22-3.48-6.52-4-10.84-.32-2.5-.42-5.09-.53-7.6l-.2-4.69-1.75,3c-1,1.62-2.08,3.21-3.16,4.74-.82,1.17-1.68,2.38-2.47,3.61-2.24,3.51-4.35,7.17-6.39,10.72l-1,1.77a279.05,279.05,0,0,0-12.93,26l-.45,1a27.72,27.72,0,0,0-2.3,6.44,17.88,17.88,0,0,0,.66,7.74l.59,2.3,1.26-2c6.36-10.06,12.47-17,19.83-22.66a208.66,208.66,0,0,1,20.24-13.18c.07,0,.28-.17.28-.17l.82-.5a223.76,223.76,0,0,0,21.53-14c4.5-3.44,8.81-7.22,13-10.87l3.36-2.94c4-2,7.14-5,8.13-9.42L350.74,177l24.34-.39,74.34-1.16c-4.15,7.65-10.88,18-14.12,18a2.71,2.71,0,0,0-2.49,1.78c-2.18,4.59.44,19.35,5.16,29.94-6.25,6.25-15.81,14.19-19.15,16.93-7-22.81-32.39-21.74-32.65-21.73l-4.82.25,4.51,1.73c.22.08,22.35,9,20.61,46.25q-4,3-7.84,5.64l-1.49,1a127.7,127.7,0,0,0-4-26h0c0-.14-.16-.58-.39-1.25-3.33-10.28-12.76-18-25.52-20.74a66.76,66.76,0,0,0-14.94-1.35c-.42,0-.83,0-1.27,0l-2.16,0,0,.13a84.19,84.19,0,0,0-20.25,3.68,42,42,0,0,0-7.19,2.65,54.06,54.06,0,0,0-17.62,11.76A68.64,68.64,0,0,0,294.31,257l-.49.76-.58.92.07,0a121,121,0,0,0-12.37,33.94c-1.64,7.89-2,15.95-2.28,23.75l-.12,3.14h.08c-9.71,20.28-8.26,33.82-8.19,34.4l0,.21.11.18c3.27,5.31,10.25,23.27,10.32,23.45l.23.58,3.25.16,1.83-52.11h14.22c-11.49,64.08,4.27,73.71,4.95,74.09l3.78,2.12-2.52-3.52c-8.21-11.47-2.45-47.73-2.39-48.09v-.13c.33-10.78,22.45-31.24,22.67-31.45l.17-.15.08-.21c1.52-4-3.65-10.89-4.25-11.67l-.32-.38-1.22.39c-.86,1-8.16,3.09-17.88,5.36,23.14-36.14,52.78-36.19,53.09-36.16l0-2c-.33,0-32-.06-55.94,38.85-6.22,1.42-13.2,2.88-20,4.21l0-1.16c.3-7.71.62-15.69,2.23-23.41a119,119,0,0,1,12.18-33.41,33.78,33.78,0,0,0,15.57,4,28.81,28.81,0,0,0,7.38-1c-11.77,9.26-24.88,20.42-27.25,22.45l1.33,1.55c15.94-13.62,41.14-34.17,45.19-34.92l-.38-2c-1.16.21-3.51,1.6-6.55,3.69,3.56-7.95,1.57-18.94.83-22.33a84.71,84.71,0,0,1,18.35-3.07c1.71,5,10.69,28.27,27.76,28.27,4.57,0,9.34-1.75,14.2-5.15,1.88,7.48,3.65,18.65,3.56,25.46A302.34,302.34,0,0,1,336.81,307l.69,1.92a304.56,304.56,0,0,0,62.25-33c20.7-14.28,45.06-35.43,60.65-63.22a106.86,106.86,0,0,0,14.06-38.46s0,0,0-.07h0v0l.19-1.18h-1.1c-13.5-2.72-94.71-8.94-98.26-9.2l-121,2-.14-13.37a27.06,27.06,0,0,0,7.3-1,41.85,41.85,0,0,0,10.23-5.05l1.63-1a112.9,112.9,0,0,1,12.26-6.29c1.71-.77,3.44-1.76,5.11-2.72,3.36-1.93,6.83-3.93,10.47-4.29,6.46-.63,25.49,9,25.68,9.09l.43.22.45-.19c3.35-1.49,4.95-15.63,5.37-19.92l.16-1.69-1.57.64c-7.13,2.92-34.25-2-34.52-2.1,0,0-46.58-8.86-54.75-11.79a13.28,13.28,0,0,0-24.84-.83l-16,1.89v1.14m-57.89,162c8.36-4.91,36-21.28,53-33.52l0,.11c-.24.74-.47,1.48-.68,2.24l-.06.23c-.22.77-.42,1.56-.6,2.35a.75.75,0,0,1,0,.16c-.38,1.68-.7,3.4-.94,5.15v0c-.11.85-.21,1.7-.29,2.55a1.94,1.94,0,0,1,0,.24c-.07.82-.12,1.65-.16,2.47,0,.11,0,.21,0,.32,0,.82-.05,1.63,0,2.45v.33q0,1.23.09,2.46a2.46,2.46,0,0,1,0,.28c.06.84.13,1.67.23,2.5a.68.68,0,0,1,0,.14c.11.85.24,1.7.39,2.54v.06q.24,1.23.54,2.43a2,2,0,0,0,.07.26c.2.77.42,1.53.67,2.28l.11.33c.25.73.52,1.45.82,2.16l.15.35q.45,1.05,1,2.07l.16.3c.37.68.77,1.36,1.19,2,0,.07.09.13.13.19.46.69.93,1.35,1.45,2,3.25,4,8.17,7,14.23,8.56l.15,0A33.52,33.52,0,0,0,221,287H223l1.91,0H225l1.91,0h.28l1.87-.05.35,0,1.79-.06h.41l1.69-.07.44,0,1.52-.07.52,0,1.29-.06h.2c4.15,9.86,6.73,17.39,7.72,22.48C238.29,301.41,214.74,282.19,143.67,270.61Zm98.62-119.8a60.16,60.16,0,0,0,7.31,1.4l1.08,13.7-10,.17-.15-15.77C241.12,150.48,241.7,150.66,242.29,150.81ZM86.78,238.51c-.63,0-1,0-1,0l-.27,0a6.47,6.47,0,0,1-1-.12l-.68-.1c-2.4-.32-5-.7-7.5-1.25a45.92,45.92,0,0,1-7-2.09,41.63,41.63,0,0,1-6.46-3.26,55.73,55.73,0,0,1-6-4.33c-1.8-1.46-3.66-3.1-5.67-5-1.77-1.69-3.54-3.46-5.26-5.29s-3.26-3.56-4.7-5.28-2.82-3.5-4.06-5.25-2.3-3.37-3.47-5.3c-.55-.9-1.07-1.8-1.6-2.71l-.35-.61a24.5,24.5,0,0,1-1.46-2.75c4.2,2.22,9.08,4.76,14.08,7A100.75,100.75,0,0,0,57.8,207.3a55.43,55.43,0,0,0,12.13,2.28A43.43,43.43,0,0,0,80.64,209a48.49,48.49,0,0,0,9.29-2.78,65.2,65.2,0,0,0,8-3.94,69.61,69.61,0,0,0,6.66-4.38,54.61,54.61,0,0,0,5.34-4.48A48.76,48.76,0,0,0,114,188.9c.11-.14.22-.27.32-.41a168.31,168.31,0,0,1,.72,25.82C104.23,236.76,90.69,238.51,86.78,238.51ZM221.42,319.8a106.39,106.39,0,0,0-11.83-.59h-.45c-2.26-2.53-15.66-16.71-32.88-16.71a32.47,32.47,0,0,0-19,6.42c-7.23-2.85-14.08-5.83-20.48-8.8C144.3,296.17,176.82,283,221.42,319.8ZM116.55,183.15Zm83.05,11.47c-5.87-4.54-17.53-12.7-25.06-12.27l-3.4.19,2.94,1.71a44.08,44.08,0,0,1,3.88,2.69c-8.66,4.75-16.87,7.16-24.41,7.16a30.19,30.19,0,0,1-24.11-11.31l-.46-.66,24-1.95,38-.62C194.87,185.68,197.81,191.12,199.6,194.62Zm12.73-3.1c-1.45-1.3-4.9-6.39-8.47-12.17l21.9-.35A182.77,182.77,0,0,1,212.33,191.52ZM408.58,267c.79-27.78-11.66-40-18.17-44.41,7.39.77,22.46,4.46,26.86,21.54l.39,1.53,1.24-1c.65-.53,12.32-10,20-17.55a31.52,31.52,0,0,0,3.61,5.81l.65.8.79-.66.27-.22A208.39,208.39,0,0,1,408.58,267Z" transform="translate(-25.34 -97.4)"/><path class="cls-1" d="M277.91,358.83a37.36,37.36,0,0,0-4.44-.43c-1.84-.08-4-.1-6.28,0-1.14.06-2.33.06-3.52.16l-3.64.24c-2.43.22-4.86.45-7.13.74s-4.39.6-6.19.91c-3.62.6-6,1.2-6,1.2s2.45.05,6.11-.1c1.83-.06,4-.17,6.24-.31l3.5-.24,3.63-.27,9.95-.89,9.42-.58-.43-.11A10.17,10.17,0,0,0,277.91,358.83Z" transform="translate(-25.34 -97.4)"/></g></svg>